<?xml version="1.0" encoding="utf-8" standalone="no"?>
<!DOCTYPE svg PUBLIC "-//W3C//DTD SVG 1.1//EN"
  "http://www.w3.org/Graphics/SVG/1.1/DTD/svg11.dtd">
<svg xmlns:xlink="http://www.w3.org/1999/xlink" width="864pt" height="288pt" viewBox="0 0 864 288" xmlns="http://www.w3.org/2000/svg" version="1.1">
 <metadata>
  <rdf:RDF xmlns:dc="http://purl.org/dc/elements/1.1/" xmlns:cc="http://creativecommons.org/ns#" xmlns:rdf="http://www.w3.org/1999/02/22-rdf-syntax-ns#">
   <cc:Work>
    <dc:type rdf:resource="http://purl.org/dc/dcmitype/StillImage"/>
    <dc:date>2022-10-27T12:20:57.683289</dc:date>
    <dc:format>image/svg+xml</dc:format>
    <dc:creator>
     <cc:Agent>
      <dc:title>Matplotlib v3.6.1, https://matplotlib.org/</dc:title>
     </cc:Agent>
    </dc:creator>
   </cc:Work>
  </rdf:RDF>
 </metadata>
 <defs>
  <style type="text/css">*{stroke-linejoin: round; stroke-linecap: butt}</style>
 </defs>
 <g id="figure_1">
  <g id="patch_1">
   <path d="M 0 288 
L 864 288 
L 864 0 
L 0 0 
z
" style="fill: #ffffff"/>
  </g>
  <g id="axes_1">
   <g id="patch_2">
    <path d="M 63.11 246.04 
L 284.4 246.04 
L 284.4 29.832 
L 63.11 29.832 
z
" style="fill: #ffffff"/>
   </g>
   <g id="matplotlib.axis_1">
    <g id="xtick_1">
     <g id="line2d_1">
      <defs>
       <path id="m4efc693dbb" d="M 0 0 
L 0 3.5 
" style="stroke: #000000; stroke-width: 0.8"/>
      </defs>
      <g>
       <use xlink:href="#m4efc693dbb" x="73.168636" y="246.04" style="stroke: #000000; stroke-width: 0.8"/>
      </g>
     </g>
     <g id="text_1">
      <!-- −1.0 -->
      <g transform="translate(61.02723 260.638438) scale(0.1 -0.1)">
       <defs>
        <path id="DejaVuSans-2212" d="M 678 2272 
L 4684 2272 
L 4684 1741 
L 678 1741 
L 678 2272 
z
" transform="scale(0.015625)"/>
        <path id="DejaVuSans-31" d="M 794 531 
L 1825 531 
L 1825 4091 
L 703 3866 
L 703 4441 
L 1819 4666 
L 2450 4666 
L 2450 531 
L 3481 531 
L 3481 0 
L 794 0 
L 794 531 
z
" transform="scale(0.015625)"/>
        <path id="DejaVuSans-2e" d="M 684 794 
L 1344 794 
L 1344 0 
L 684 0 
L 684 794 
z
" transform="scale(0.015625)"/>
        <path id="DejaVuSans-30" d="M 2034 4250 
Q 1547 4250 1301 3770 
Q 1056 3291 1056 2328 
Q 1056 1369 1301 889 
Q 1547 409 2034 409 
Q 2525 409 2770 889 
Q 3016 1369 3016 2328 
Q 3016 3291 2770 3770 
Q 2525 4250 2034 4250 
z
M 2034 4750 
Q 2819 4750 3233 4129 
Q 3647 3509 3647 2328 
Q 3647 1150 3233 529 
Q 2819 -91 2034 -91 
Q 1250 -91 836 529 
Q 422 1150 422 2328 
Q 422 3509 836 4129 
Q 1250 4750 2034 4750 
z
" transform="scale(0.015625)"/>
       </defs>
       <use xlink:href="#DejaVuSans-2212"/>
       <use xlink:href="#DejaVuSans-31" x="83.789062"/>
       <use xlink:href="#DejaVuSans-2e" x="147.412109"/>
       <use xlink:href="#DejaVuSans-30" x="179.199219"/>
      </g>
     </g>
    </g>
    <g id="xtick_2">
     <g id="line2d_2">
      <g>
       <use xlink:href="#m4efc693dbb" x="123.461818" y="246.04" style="stroke: #000000; stroke-width: 0.8"/>
      </g>
     </g>
     <g id="text_2">
      <!-- −0.5 -->
      <g transform="translate(111.320412 260.638438) scale(0.1 -0.1)">
       <defs>
        <path id="DejaVuSans-35" d="M 691 4666 
L 3169 4666 
L 3169 4134 
L 1269 4134 
L 1269 2991 
Q 1406 3038 1543 3061 
Q 1681 3084 1819 3084 
Q 2600 3084 3056 2656 
Q 3513 2228 3513 1497 
Q 3513 744 3044 326 
Q 2575 -91 1722 -91 
Q 1428 -91 1123 -41 
Q 819 9 494 109 
L 494 744 
Q 775 591 1075 516 
Q 1375 441 1709 441 
Q 2250 441 2565 725 
Q 2881 1009 2881 1497 
Q 2881 1984 2565 2268 
Q 2250 2553 1709 2553 
Q 1456 2553 1204 2497 
Q 953 2441 691 2322 
L 691 4666 
z
" transform="scale(0.015625)"/>
       </defs>
       <use xlink:href="#DejaVuSans-2212"/>
       <use xlink:href="#DejaVuSans-30" x="83.789062"/>
       <use xlink:href="#DejaVuSans-2e" x="147.412109"/>
       <use xlink:href="#DejaVuSans-35" x="179.199219"/>
      </g>
     </g>
    </g>
    <g id="xtick_3">
     <g id="line2d_3">
      <g>
       <use xlink:href="#m4efc693dbb" x="173.755" y="246.04" style="stroke: #000000; stroke-width: 0.8"/>
      </g>
     </g>
     <g id="text_3">
      <!-- 0.0 -->
      <g transform="translate(165.803438 260.638438) scale(0.1 -0.1)">
       <use xlink:href="#DejaVuSans-30"/>
       <use xlink:href="#DejaVuSans-2e" x="63.623047"/>
       <use xlink:href="#DejaVuSans-30" x="95.410156"/>
      </g>
     </g>
    </g>
    <g id="xtick_4">
     <g id="line2d_4">
      <g>
       <use xlink:href="#m4efc693dbb" x="224.048182" y="246.04" style="stroke: #000000; stroke-width: 0.8"/>
      </g>
     </g>
     <g id="text_4">
      <!-- 0.5 -->
      <g transform="translate(216.096619 260.638438) scale(0.1 -0.1)">
       <use xlink:href="#DejaVuSans-30"/>
       <use xlink:href="#DejaVuSans-2e" x="63.623047"/>
       <use xlink:href="#DejaVuSans-35" x="95.410156"/>
      </g>
     </g>
    </g>
    <g id="xtick_5">
     <g id="line2d_5">
      <g>
       <use xlink:href="#m4efc693dbb" x="274.341364" y="246.04" style="stroke: #000000; stroke-width: 0.8"/>
      </g>
     </g>
     <g id="text_5">
      <!-- 1.0 -->
      <g transform="translate(266.389801 260.638438) scale(0.1 -0.1)">
       <use xlink:href="#DejaVuSans-31"/>
       <use xlink:href="#DejaVuSans-2e" x="63.623047"/>
       <use xlink:href="#DejaVuSans-30" x="95.410156"/>
      </g>
     </g>
    </g>
    <g id="text_6">
     <!-- $x$ -->
     <g transform="translate(170.755 274.316562) scale(0.1 -0.1)">
      <defs>
       <path id="DejaVuSans-Oblique-78" d="M 3841 3500 
L 2234 1784 
L 3219 0 
L 2559 0 
L 1819 1388 
L 531 0 
L -166 0 
L 1556 1844 
L 641 3500 
L 1300 3500 
L 1972 2234 
L 3144 3500 
L 3841 3500 
z
" transform="scale(0.015625)"/>
      </defs>
      <use xlink:href="#DejaVuSans-Oblique-78" transform="translate(0 0.3125)"/>
     </g>
    </g>
   </g>
   <g id="matplotlib.axis_2">
    <g id="ytick_1">
     <g id="line2d_6">
      <defs>
       <path id="m346888813f" d="M 0 0 
L -3.5 0 
" style="stroke: #000000; stroke-width: 0.8"/>
      </defs>
      <g>
       <use xlink:href="#m346888813f" x="63.11" y="236.212364" style="stroke: #000000; stroke-width: 0.8"/>
      </g>
     </g>
     <g id="text_7">
      <!-- −1.00 -->
      <g transform="translate(25.464688 240.011582) scale(0.1 -0.1)">
       <use xlink:href="#DejaVuSans-2212"/>
       <use xlink:href="#DejaVuSans-31" x="83.789062"/>
       <use xlink:href="#DejaVuSans-2e" x="147.412109"/>
       <use xlink:href="#DejaVuSans-30" x="179.199219"/>
       <use xlink:href="#DejaVuSans-30" x="242.822266"/>
      </g>
     </g>
    </g>
    <g id="ytick_2">
     <g id="line2d_7">
      <g>
       <use xlink:href="#m346888813f" x="63.11" y="211.643273" style="stroke: #000000; stroke-width: 0.8"/>
      </g>
     </g>
     <g id="text_8">
      <!-- −0.75 -->
      <g transform="translate(25.464688 215.442491) scale(0.1 -0.1)">
       <defs>
        <path id="DejaVuSans-37" d="M 525 4666 
L 3525 4666 
L 3525 4397 
L 1831 0 
L 1172 0 
L 2766 4134 
L 525 4134 
L 525 4666 
z
" transform="scale(0.015625)"/>
       </defs>
       <use xlink:href="#DejaVuSans-2212"/>
       <use xlink:href="#DejaVuSans-30" x="83.789062"/>
       <use xlink:href="#DejaVuSans-2e" x="147.412109"/>
       <use xlink:href="#DejaVuSans-37" x="179.199219"/>
       <use xlink:href="#DejaVuSans-35" x="242.822266"/>
      </g>
     </g>
    </g>
    <g id="ytick_3">
     <g id="line2d_8">
      <g>
       <use xlink:href="#m346888813f" x="63.11" y="187.074182" style="stroke: #000000; stroke-width: 0.8"/>
      </g>
     </g>
     <g id="text_9">
      <!-- −0.50 -->
      <g transform="translate(25.464688 190.873401) scale(0.1 -0.1)">
       <use xlink:href="#DejaVuSans-2212"/>
       <use xlink:href="#DejaVuSans-30" x="83.789062"/>
       <use xlink:href="#DejaVuSans-2e" x="147.412109"/>
       <use xlink:href="#DejaVuSans-35" x="179.199219"/>
       <use xlink:href="#DejaVuSans-30" x="242.822266"/>
      </g>
     </g>
    </g>
    <g id="ytick_4">
     <g id="line2d_9">
      <g>
       <use xlink:href="#m346888813f" x="63.11" y="162.505091" style="stroke: #000000; stroke-width: 0.8"/>
      </g>
     </g>
     <g id="text_10">
      <!-- −0.25 -->
      <g transform="translate(25.464688 166.30431) scale(0.1 -0.1)">
       <defs>
        <path id="DejaVuSans-32" d="M 1228 531 
L 3431 531 
L 3431 0 
L 469 0 
L 469 531 
Q 828 903 1448 1529 
Q 2069 2156 2228 2338 
Q 2531 2678 2651 2914 
Q 2772 3150 2772 3378 
Q 2772 3750 2511 3984 
Q 2250 4219 1831 4219 
Q 1534 4219 1204 4116 
Q 875 4013 500 3803 
L 500 4441 
Q 881 4594 1212 4672 
Q 1544 4750 1819 4750 
Q 2544 4750 2975 4387 
Q 3406 4025 3406 3419 
Q 3406 3131 3298 2873 
Q 3191 2616 2906 2266 
Q 2828 2175 2409 1742 
Q 1991 1309 1228 531 
z
" transform="scale(0.015625)"/>
       </defs>
       <use xlink:href="#DejaVuSans-2212"/>
       <use xlink:href="#DejaVuSans-30" x="83.789062"/>
       <use xlink:href="#DejaVuSans-2e" x="147.412109"/>
       <use xlink:href="#DejaVuSans-32" x="179.199219"/>
       <use xlink:href="#DejaVuSans-35" x="242.822266"/>
      </g>
     </g>
    </g>
    <g id="ytick_5">
     <g id="line2d_10">
      <g>
       <use xlink:href="#m346888813f" x="63.11" y="137.936" style="stroke: #000000; stroke-width: 0.8"/>
      </g>
     </g>
     <g id="text_11">
      <!-- 0.00 -->
      <g transform="translate(33.844375 141.735219) scale(0.1 -0.1)">
       <use xlink:href="#DejaVuSans-30"/>
       <use xlink:href="#DejaVuSans-2e" x="63.623047"/>
       <use xlink:href="#DejaVuSans-30" x="95.410156"/>
       <use xlink:href="#DejaVuSans-30" x="159.033203"/>
      </g>
     </g>
    </g>
    <g id="ytick_6">
     <g id="line2d_11">
      <g>
       <use xlink:href="#m346888813f" x="63.11" y="113.366909" style="stroke: #000000; stroke-width: 0.8"/>
      </g>
     </g>
     <g id="text_12">
      <!-- 0.25 -->
      <g transform="translate(33.844375 117.166128) scale(0.1 -0.1)">
       <use xlink:href="#DejaVuSans-30"/>
       <use xlink:href="#DejaVuSans-2e" x="63.623047"/>
       <use xlink:href="#DejaVuSans-32" x="95.410156"/>
       <use xlink:href="#DejaVuSans-35" x="159.033203"/>
      </g>
     </g>
    </g>
    <g id="ytick_7">
     <g id="line2d_12">
      <g>
       <use xlink:href="#m346888813f" x="63.11" y="88.797818" style="stroke: #000000; stroke-width: 0.8"/>
      </g>
     </g>
     <g id="text_13">
      <!-- 0.50 -->
      <g transform="translate(33.844375 92.597037) scale(0.1 -0.1)">
       <use xlink:href="#DejaVuSans-30"/>
       <use xlink:href="#DejaVuSans-2e" x="63.623047"/>
       <use xlink:href="#DejaVuSans-35" x="95.410156"/>
       <use xlink:href="#DejaVuSans-30" x="159.033203"/>
      </g>
     </g>
    </g>
    <g id="ytick_8">
     <g id="line2d_13">
      <g>
       <use xlink:href="#m346888813f" x="63.11" y="64.228727" style="stroke: #000000; stroke-width: 0.8"/>
      </g>
     </g>
     <g id="text_14">
      <!-- 0.75 -->
      <g transform="translate(33.844375 68.027946) scale(0.1 -0.1)">
       <use xlink:href="#DejaVuSans-30"/>
       <use xlink:href="#DejaVuSans-2e" x="63.623047"/>
       <use xlink:href="#DejaVuSans-37" x="95.410156"/>
       <use xlink:href="#DejaVuSans-35" x="159.033203"/>
      </g>
     </g>
    </g>
    <g id="ytick_9">
     <g id="line2d_14">
      <g>
       <use xlink:href="#m346888813f" x="63.11" y="39.659636" style="stroke: #000000; stroke-width: 0.8"/>
      </g>
     </g>
     <g id="text_15">
      <!-- 1.00 -->
      <g transform="translate(33.844375 43.458855) scale(0.1 -0.1)">
       <use xlink:href="#DejaVuSans-31"/>
       <use xlink:href="#DejaVuSans-2e" x="63.623047"/>
       <use xlink:href="#DejaVuSans-30" x="95.410156"/>
       <use xlink:href="#DejaVuSans-30" x="159.033203"/>
      </g>
     </g>
    </g>
    <g id="text_16">
     <!-- $y$ -->
     <g transform="translate(19.364688 140.936) rotate(-90) scale(0.1 -0.1)">
      <defs>
       <path id="DejaVuSans-Oblique-79" d="M 1588 -325 
Q 1188 -997 936 -1164 
Q 684 -1331 294 -1331 
L -159 -1331 
L -63 -850 
L 269 -850 
Q 509 -850 678 -719 
Q 847 -588 1056 -206 
L 1234 128 
L 459 3500 
L 1069 3500 
L 1650 819 
L 3256 3500 
L 3859 3500 
L 1588 -325 
z
" transform="scale(0.015625)"/>
      </defs>
      <use xlink:href="#DejaVuSans-Oblique-79" transform="translate(0 0.3125)"/>
     </g>
    </g>
   </g>
   <g id="line2d_15">
    <path d="M 73.168636 39.659636 
L 75.200684 41.645017 
L 77.232732 43.630399 
L 79.26478 45.61578 
L 81.296827 47.601161 
L 83.328875 49.586542 
L 85.360923 51.571923 
L 87.392971 53.557304 
L 89.425018 55.542685 
L 91.457066 57.528066 
L 93.489114 59.513447 
L 95.521162 61.498828 
L 97.553209 63.484209 
L 99.585257 65.46959 
L 101.617305 67.454972 
L 103.649353 69.440353 
L 105.6814 71.425734 
L 107.713448 73.411115 
L 109.745496 75.396496 
L 111.777544 77.381877 
L 113.809591 79.367258 
L 115.841639 81.352639 
L 117.873687 83.33802 
L 119.905735 85.323401 
L 121.937782 87.308782 
L 123.96983 89.294163 
L 126.001878 91.279545 
L 128.033926 93.264926 
L 130.065973 95.250307 
L 132.098021 97.235688 
L 134.130069 99.221069 
L 136.162117 101.20645 
L 138.194164 103.191831 
L 140.226212 105.177212 
L 142.25826 107.162593 
L 144.290308 109.147974 
L 146.322355 111.133355 
L 148.354403 113.118736 
L 150.386451 115.104118 
L 152.418499 117.089499 
L 154.450546 119.07488 
L 156.482594 121.060261 
L 158.514642 123.045642 
L 160.54669 125.031023 
L 162.578737 127.016404 
L 164.610785 129.001785 
L 166.642833 130.987166 
L 168.674881 132.972547 
L 170.706928 134.957928 
L 172.738976 136.943309 
L 174.771024 138.928691 
L 176.803072 140.914072 
L 178.835119 142.899453 
L 180.867167 144.884834 
L 182.899215 146.870215 
L 184.931263 148.855596 
L 186.96331 150.840977 
L 188.995358 152.826358 
L 191.027406 154.811739 
L 193.059454 156.79712 
L 195.091501 158.782501 
L 197.123549 160.767882 
L 199.155597 162.753264 
L 201.187645 164.738645 
L 203.219692 166.724026 
L 205.25174 168.709407 
L 207.283788 170.694788 
L 209.315836 172.680169 
L 211.347883 174.66555 
L 213.379931 176.650931 
L 215.411979 178.636312 
L 217.444027 180.621693 
L 219.476074 182.607074 
L 221.508122 184.592455 
L 223.54017 186.577837 
L 225.572218 188.563218 
L 227.604265 190.548599 
L 229.636313 192.53398 
L 231.668361 194.519361 
L 233.700409 196.504742 
L 235.732456 198.490123 
L 237.764504 200.475504 
L 239.796552 202.460885 
L 241.8286 204.446266 
L 243.860647 206.431647 
L 245.892695 208.417028 
L 247.924743 210.40241 
L 249.956791 212.387791 
L 251.988838 214.373172 
L 254.020886 216.358553 
L 256.052934 218.343934 
L 258.084982 220.329315 
L 260.117029 222.314696 
L 262.149077 224.300077 
L 264.181125 226.285458 
L 266.213173 228.270839 
L 268.24522 230.25622 
L 270.277268 232.241601 
L 272.309316 234.226983 
L 274.341364 236.212364 
" clip-path="url(#p58b55cee86)" style="fill: none; stroke: #1f77b4; stroke-width: 1.5; stroke-linecap: square"/>
   </g>
   <g id="line2d_16">
    <path d="M 73.168636 78.970182 
L 75.200684 80.16141 
L 77.232732 81.352639 
L 79.26478 82.543868 
L 81.296827 83.735096 
L 83.328875 84.926325 
L 85.360923 86.117554 
L 87.392971 87.308782 
L 89.425018 88.500011 
L 91.457066 89.69124 
L 93.489114 90.882468 
L 95.521162 92.073697 
L 97.553209 93.264926 
L 99.585257 94.456154 
L 101.617305 95.647383 
L 103.649353 96.838612 
L 105.6814 98.02984 
L 107.713448 99.221069 
L 109.745496 100.412298 
L 111.777544 101.603526 
L 113.809591 102.794755 
L 115.841639 103.985983 
L 117.873687 105.177212 
L 119.905735 106.368441 
L 121.937782 107.559669 
L 123.96983 108.750898 
L 126.001878 109.942127 
L 128.033926 111.133355 
L 130.065973 112.324584 
L 132.098021 113.515813 
L 134.130069 114.707041 
L 136.162117 115.89827 
L 138.194164 117.089499 
L 140.226212 118.280727 
L 142.25826 119.471956 
L 144.290308 120.663185 
L 146.322355 121.854413 
L 148.354403 123.045642 
L 150.386451 124.236871 
L 152.418499 125.428099 
L 154.450546 126.619328 
L 156.482594 127.810556 
L 158.514642 129.001785 
L 160.54669 130.193014 
L 162.578737 131.384242 
L 164.610785 132.575471 
L 166.642833 133.7667 
L 168.674881 134.957928 
L 170.706928 136.149157 
L 172.738976 137.340386 
L 174.771024 138.531614 
L 176.803072 139.722843 
L 178.835119 140.914072 
L 180.867167 142.1053 
L 182.899215 143.296529 
L 184.931263 144.487758 
L 186.96331 145.678986 
L 188.995358 146.870215 
L 191.027406 148.061444 
L 193.059454 149.252672 
L 195.091501 150.443901 
L 197.123549 151.635129 
L 199.155597 152.826358 
L 201.187645 154.017587 
L 203.219692 155.208815 
L 205.25174 156.400044 
L 207.283788 157.591273 
L 209.315836 158.782501 
L 211.347883 159.97373 
L 213.379931 161.164959 
L 215.411979 162.356187 
L 217.444027 163.547416 
L 219.476074 164.738645 
L 221.508122 165.929873 
L 223.54017 167.121102 
L 225.572218 168.312331 
L 227.604265 169.503559 
L 229.636313 170.694788 
L 231.668361 171.886017 
L 233.700409 173.077245 
L 235.732456 174.268474 
L 237.764504 175.459702 
L 239.796552 176.650931 
L 241.8286 177.84216 
L 243.860647 179.033388 
L 245.892695 180.224617 
L 247.924743 181.415846 
L 249.956791 182.607074 
L 251.988838 183.798303 
L 254.020886 184.989532 
L 256.052934 186.18076 
L 258.084982 187.371989 
L 260.117029 188.563218 
L 262.149077 189.754446 
L 264.181125 190.945675 
L 266.213173 192.136904 
L 268.24522 193.328132 
L 270.277268 194.519361 
L 272.309316 195.71059 
L 274.341364 196.901818 
" clip-path="url(#p58b55cee86)" style="fill: none; stroke: #ff7f0e; stroke-width: 1.5; stroke-linecap: square"/>
   </g>
   <g id="line2d_17">
    <path d="M 73.168636 118.280727 
L 75.200684 118.677803 
L 77.232732 119.07488 
L 79.26478 119.471956 
L 81.296827 119.869032 
L 83.328875 120.266108 
L 85.360923 120.663185 
L 87.392971 121.060261 
L 89.425018 121.457337 
L 91.457066 121.854413 
L 93.489114 122.251489 
L 95.521162 122.648566 
L 97.553209 123.045642 
L 99.585257 123.442718 
L 101.617305 123.839794 
L 103.649353 124.236871 
L 105.6814 124.633947 
L 107.713448 125.031023 
L 109.745496 125.428099 
L 111.777544 125.825175 
L 113.809591 126.222252 
L 115.841639 126.619328 
L 117.873687 127.016404 
L 119.905735 127.41348 
L 121.937782 127.810556 
L 123.96983 128.207633 
L 126.001878 128.604709 
L 128.033926 129.001785 
L 130.065973 129.398861 
L 132.098021 129.795938 
L 134.130069 130.193014 
L 136.162117 130.59009 
L 138.194164 130.987166 
L 140.226212 131.384242 
L 142.25826 131.781319 
L 144.290308 132.178395 
L 146.322355 132.575471 
L 148.354403 132.972547 
L 150.386451 133.369624 
L 152.418499 133.7667 
L 154.450546 134.163776 
L 156.482594 134.560852 
L 158.514642 134.957928 
L 160.54669 135.355005 
L 162.578737 135.752081 
L 164.610785 136.149157 
L 166.642833 136.546233 
L 168.674881 136.943309 
L 170.706928 137.340386 
L 172.738976 137.737462 
L 174.771024 138.134538 
L 176.803072 138.531614 
L 178.835119 138.928691 
L 180.867167 139.325767 
L 182.899215 139.722843 
L 184.931263 140.119919 
L 186.96331 140.516995 
L 188.995358 140.914072 
L 191.027406 141.311148 
L 193.059454 141.708224 
L 195.091501 142.1053 
L 197.123549 142.502376 
L 199.155597 142.899453 
L 201.187645 143.296529 
L 203.219692 143.693605 
L 205.25174 144.090681 
L 207.283788 144.487758 
L 209.315836 144.884834 
L 211.347883 145.28191 
L 213.379931 145.678986 
L 215.411979 146.076062 
L 217.444027 146.473139 
L 219.476074 146.870215 
L 221.508122 147.267291 
L 223.54017 147.664367 
L 225.572218 148.061444 
L 227.604265 148.45852 
L 229.636313 148.855596 
L 231.668361 149.252672 
L 233.700409 149.649748 
L 235.732456 150.046825 
L 237.764504 150.443901 
L 239.796552 150.840977 
L 241.8286 151.238053 
L 243.860647 151.635129 
L 245.892695 152.032206 
L 247.924743 152.429282 
L 249.956791 152.826358 
L 251.988838 153.223434 
L 254.020886 153.620511 
L 256.052934 154.017587 
L 258.084982 154.414663 
L 260.117029 154.811739 
L 262.149077 155.208815 
L 264.181125 155.605892 
L 266.213173 156.002968 
L 268.24522 156.400044 
L 270.277268 156.79712 
L 272.309316 157.194197 
L 274.341364 157.591273 
" clip-path="url(#p58b55cee86)" style="fill: none; stroke: #2ca02c; stroke-width: 1.5; stroke-linecap: square"/>
   </g>
   <g id="line2d_18">
    <path d="M 73.168636 157.591273 
L 75.200684 157.194197 
L 77.232732 156.79712 
L 79.26478 156.400044 
L 81.296827 156.002968 
L 83.328875 155.605892 
L 85.360923 155.208815 
L 87.392971 154.811739 
L 89.425018 154.414663 
L 91.457066 154.017587 
L 93.489114 153.620511 
L 95.521162 153.223434 
L 97.553209 152.826358 
L 99.585257 152.429282 
L 101.617305 152.032206 
L 103.649353 151.635129 
L 105.6814 151.238053 
L 107.713448 150.840977 
L 109.745496 150.443901 
L 111.777544 150.046825 
L 113.809591 149.649748 
L 115.841639 149.252672 
L 117.873687 148.855596 
L 119.905735 148.45852 
L 121.937782 148.061444 
L 123.96983 147.664367 
L 126.001878 147.267291 
L 128.033926 146.870215 
L 130.065973 146.473139 
L 132.098021 146.076062 
L 134.130069 145.678986 
L 136.162117 145.28191 
L 138.194164 144.884834 
L 140.226212 144.487758 
L 142.25826 144.090681 
L 144.290308 143.693605 
L 146.322355 143.296529 
L 148.354403 142.899453 
L 150.386451 142.502376 
L 152.418499 142.1053 
L 154.450546 141.708224 
L 156.482594 141.311148 
L 158.514642 140.914072 
L 160.54669 140.516995 
L 162.578737 140.119919 
L 164.610785 139.722843 
L 166.642833 139.325767 
L 168.674881 138.928691 
L 170.706928 138.531614 
L 172.738976 138.134538 
L 174.771024 137.737462 
L 176.803072 137.340386 
L 178.835119 136.943309 
L 180.867167 136.546233 
L 182.899215 136.149157 
L 184.931263 135.752081 
L 186.96331 135.355005 
L 188.995358 134.957928 
L 191.027406 134.560852 
L 193.059454 134.163776 
L 195.091501 133.7667 
L 197.123549 133.369624 
L 199.155597 132.972547 
L 201.187645 132.575471 
L 203.219692 132.178395 
L 205.25174 131.781319 
L 207.283788 131.384242 
L 209.315836 130.987166 
L 211.347883 130.59009 
L 213.379931 130.193014 
L 215.411979 129.795938 
L 217.444027 129.398861 
L 219.476074 129.001785 
L 221.508122 128.604709 
L 223.54017 128.207633 
L 225.572218 127.810556 
L 227.604265 127.41348 
L 229.636313 127.016404 
L 231.668361 126.619328 
L 233.700409 126.222252 
L 235.732456 125.825175 
L 237.764504 125.428099 
L 239.796552 125.031023 
L 241.8286 124.633947 
L 243.860647 124.236871 
L 245.892695 123.839794 
L 247.924743 123.442718 
L 249.956791 123.045642 
L 251.988838 122.648566 
L 254.020886 122.251489 
L 256.052934 121.854413 
L 258.084982 121.457337 
L 260.117029 121.060261 
L 262.149077 120.663185 
L 264.181125 120.266108 
L 266.213173 119.869032 
L 268.24522 119.471956 
L 270.277268 119.07488 
L 272.309316 118.677803 
L 274.341364 118.280727 
" clip-path="url(#p58b55cee86)" style="fill: none; stroke: #d62728; stroke-width: 1.5; stroke-linecap: square"/>
   </g>
   <g id="line2d_19">
    <path d="M 73.168636 196.901818 
L 75.200684 195.71059 
L 77.232732 194.519361 
L 79.26478 193.328132 
L 81.296827 192.136904 
L 83.328875 190.945675 
L 85.360923 189.754446 
L 87.392971 188.563218 
L 89.425018 187.371989 
L 91.457066 186.18076 
L 93.489114 184.989532 
L 95.521162 183.798303 
L 97.553209 182.607074 
L 99.585257 181.415846 
L 101.617305 180.224617 
L 103.649353 179.033388 
L 105.6814 177.84216 
L 107.713448 176.650931 
L 109.745496 175.459702 
L 111.777544 174.268474 
L 113.809591 173.077245 
L 115.841639 171.886017 
L 117.873687 170.694788 
L 119.905735 169.503559 
L 121.937782 168.312331 
L 123.96983 167.121102 
L 126.001878 165.929873 
L 128.033926 164.738645 
L 130.065973 163.547416 
L 132.098021 162.356187 
L 134.130069 161.164959 
L 136.162117 159.97373 
L 138.194164 158.782501 
L 140.226212 157.591273 
L 142.25826 156.400044 
L 144.290308 155.208815 
L 146.322355 154.017587 
L 148.354403 152.826358 
L 150.386451 151.635129 
L 152.418499 150.443901 
L 154.450546 149.252672 
L 156.482594 148.061444 
L 158.514642 146.870215 
L 160.54669 145.678986 
L 162.578737 144.487758 
L 164.610785 143.296529 
L 166.642833 142.1053 
L 168.674881 140.914072 
L 170.706928 139.722843 
L 172.738976 138.531614 
L 174.771024 137.340386 
L 176.803072 136.149157 
L 178.835119 134.957928 
L 180.867167 133.7667 
L 182.899215 132.575471 
L 184.931263 131.384242 
L 186.96331 130.193014 
L 188.995358 129.001785 
L 191.027406 127.810556 
L 193.059454 126.619328 
L 195.091501 125.428099 
L 197.123549 124.236871 
L 199.155597 123.045642 
L 201.187645 121.854413 
L 203.219692 120.663185 
L 205.25174 119.471956 
L 207.283788 118.280727 
L 209.315836 117.089499 
L 211.347883 115.89827 
L 213.379931 114.707041 
L 215.411979 113.515813 
L 217.444027 112.324584 
L 219.476074 111.133355 
L 221.508122 109.942127 
L 223.54017 108.750898 
L 225.572218 107.559669 
L 227.604265 106.368441 
L 229.636313 105.177212 
L 231.668361 103.985983 
L 233.700409 102.794755 
L 235.732456 101.603526 
L 237.764504 100.412298 
L 239.796552 99.221069 
L 241.8286 98.02984 
L 243.860647 96.838612 
L 245.892695 95.647383 
L 247.924743 94.456154 
L 249.956791 93.264926 
L 251.988838 92.073697 
L 254.020886 90.882468 
L 256.052934 89.69124 
L 258.084982 88.500011 
L 260.117029 87.308782 
L 262.149077 86.117554 
L 264.181125 84.926325 
L 266.213173 83.735096 
L 268.24522 82.543868 
L 270.277268 81.352639 
L 272.309316 80.16141 
L 274.341364 78.970182 
" clip-path="url(#p58b55cee86)" style="fill: none; stroke: #9467bd; stroke-width: 1.5; stroke-linecap: square"/>
   </g>
   <g id="line2d_20">
    <path d="M 73.168636 236.212364 
L 75.200684 234.226983 
L 77.232732 232.241601 
L 79.26478 230.25622 
L 81.296827 228.270839 
L 83.328875 226.285458 
L 85.360923 224.300077 
L 87.392971 222.314696 
L 89.425018 220.329315 
L 91.457066 218.343934 
L 93.489114 216.358553 
L 95.521162 214.373172 
L 97.553209 212.387791 
L 99.585257 210.40241 
L 101.617305 208.417028 
L 103.649353 206.431647 
L 105.6814 204.446266 
L 107.713448 202.460885 
L 109.745496 200.475504 
L 111.777544 198.490123 
L 113.809591 196.504742 
L 115.841639 194.519361 
L 117.873687 192.53398 
L 119.905735 190.548599 
L 121.937782 188.563218 
L 123.96983 186.577837 
L 126.001878 184.592455 
L 128.033926 182.607074 
L 130.065973 180.621693 
L 132.098021 178.636312 
L 134.130069 176.650931 
L 136.162117 174.66555 
L 138.194164 172.680169 
L 140.226212 170.694788 
L 142.25826 168.709407 
L 144.290308 166.724026 
L 146.322355 164.738645 
L 148.354403 162.753264 
L 150.386451 160.767882 
L 152.418499 158.782501 
L 154.450546 156.79712 
L 156.482594 154.811739 
L 158.514642 152.826358 
L 160.54669 150.840977 
L 162.578737 148.855596 
L 164.610785 146.870215 
L 166.642833 144.884834 
L 168.674881 142.899453 
L 170.706928 140.914072 
L 172.738976 138.928691 
L 174.771024 136.943309 
L 176.803072 134.957928 
L 178.835119 132.972547 
L 180.867167 130.987166 
L 182.899215 129.001785 
L 184.931263 127.016404 
L 186.96331 125.031023 
L 188.995358 123.045642 
L 191.027406 121.060261 
L 193.059454 119.07488 
L 195.091501 117.089499 
L 197.123549 115.104118 
L 199.155597 113.118736 
L 201.187645 111.133355 
L 203.219692 109.147974 
L 205.25174 107.162593 
L 207.283788 105.177212 
L 209.315836 103.191831 
L 211.347883 101.20645 
L 213.379931 99.221069 
L 215.411979 97.235688 
L 217.444027 95.250307 
L 219.476074 93.264926 
L 221.508122 91.279545 
L 223.54017 89.294163 
L 225.572218 87.308782 
L 227.604265 85.323401 
L 229.636313 83.33802 
L 231.668361 81.352639 
L 233.700409 79.367258 
L 235.732456 77.381877 
L 237.764504 75.396496 
L 239.796552 73.411115 
L 241.8286 71.425734 
L 243.860647 69.440353 
L 245.892695 67.454972 
L 247.924743 65.46959 
L 249.956791 63.484209 
L 251.988838 61.498828 
L 254.020886 59.513447 
L 256.052934 57.528066 
L 258.084982 55.542685 
L 260.117029 53.557304 
L 262.149077 51.571923 
L 264.181125 49.586542 
L 266.213173 47.601161 
L 268.24522 45.61578 
L 270.277268 43.630399 
L 272.309316 41.645017 
L 274.341364 39.659636 
" clip-path="url(#p58b55cee86)" style="fill: none; stroke: #8c564b; stroke-width: 1.5; stroke-linecap: square"/>
   </g>
   <g id="patch_3">
    <path d="M 63.11 246.04 
L 63.11 29.832 
" style="fill: none; stroke: #000000; stroke-width: 0.8; stroke-linejoin: miter; stroke-linecap: square"/>
   </g>
   <g id="patch_4">
    <path d="M 284.4 246.04 
L 284.4 29.832 
" style="fill: none; stroke: #000000; stroke-width: 0.8; stroke-linejoin: miter; stroke-linecap: square"/>
   </g>
   <g id="patch_5">
    <path d="M 63.11 246.04 
L 284.4 246.04 
" style="fill: none; stroke: #000000; stroke-width: 0.8; stroke-linejoin: miter; stroke-linecap: square"/>
   </g>
   <g id="patch_6">
    <path d="M 63.11 29.832 
L 284.4 29.832 
" style="fill: none; stroke: #000000; stroke-width: 0.8; stroke-linejoin: miter; stroke-linecap: square"/>
   </g>
   <g id="text_17">
    <!-- $y = \alpha x^1$ -->
    <g transform="translate(152.215 23.832) scale(0.12 -0.12)">
     <defs>
      <path id="DejaVuSans-3d" d="M 678 2906 
L 4684 2906 
L 4684 2381 
L 678 2381 
L 678 2906 
z
M 678 1631 
L 4684 1631 
L 4684 1100 
L 678 1100 
L 678 1631 
z
" transform="scale(0.015625)"/>
      <path id="DejaVuSans-Oblique-3b1" d="M 2619 1628 
L 2622 2350 
Q 2625 3088 2069 3091 
Q 1653 3094 1394 2747 
Q 1069 2319 959 1747 
Q 825 1059 994 731 
Q 1169 397 1547 397 
Q 1966 397 2319 1063 
L 2619 1628 
z
M 2166 3578 
Q 3141 3594 3128 2584 
Q 3128 2584 3616 3500 
L 4128 3500 
L 3119 1603 
L 3109 919 
Q 3109 766 3194 638 
Q 3291 488 3391 488 
L 3669 488 
L 3575 0 
L 3228 0 
Q 2934 0 2722 263 
Q 2622 394 2619 669 
Q 2416 334 2066 50 
Q 1900 -81 1453 -78 
Q 722 -72 456 397 
Q 184 884 353 1747 
Q 534 2675 1009 3097 
Q 1544 3569 2166 3578 
z
" transform="scale(0.015625)"/>
     </defs>
     <use xlink:href="#DejaVuSans-Oblique-79" transform="translate(0 0.684375)"/>
     <use xlink:href="#DejaVuSans-3d" transform="translate(78.662109 0.684375)"/>
     <use xlink:href="#DejaVuSans-Oblique-3b1" transform="translate(181.933594 0.684375)"/>
     <use xlink:href="#DejaVuSans-Oblique-78" transform="translate(247.851562 0.684375)"/>
     <use xlink:href="#DejaVuSans-31" transform="translate(311.497396 38.965625) scale(0.7)"/>
    </g>
   </g>
   <g id="legend_1">
    <g id="line2d_21">
     <path d="M 109.805 212.104062 
L 114.805 212.104062 
L 119.805 212.104062 
" style="fill: none; stroke: #1f77b4; stroke-width: 1.5; stroke-linecap: square"/>
    </g>
    <g id="text_18">
     <!-- $\alpha = -1$ -->
     <g transform="translate(127.805 215.604062) scale(0.1 -0.1)">
      <use xlink:href="#DejaVuSans-Oblique-3b1" transform="translate(0 0.09375)"/>
      <use xlink:href="#DejaVuSans-3d" transform="translate(85.400391 0.09375)"/>
      <use xlink:href="#DejaVuSans-2212" transform="translate(208.154297 0.09375)"/>
      <use xlink:href="#DejaVuSans-31" transform="translate(311.425781 0.09375)"/>
     </g>
    </g>
    <g id="line2d_22">
     <path d="M 109.805 221.782187 
L 114.805 221.782187 
L 119.805 221.782187 
" style="fill: none; stroke: #ff7f0e; stroke-width: 1.5; stroke-linecap: square"/>
    </g>
    <g id="text_19">
     <!-- $\alpha = -0.6$ -->
     <g transform="translate(127.805 225.282187) scale(0.1 -0.1)">
      <defs>
       <path id="DejaVuSans-36" d="M 2113 2584 
Q 1688 2584 1439 2293 
Q 1191 2003 1191 1497 
Q 1191 994 1439 701 
Q 1688 409 2113 409 
Q 2538 409 2786 701 
Q 3034 994 3034 1497 
Q 3034 2003 2786 2293 
Q 2538 2584 2113 2584 
z
M 3366 4563 
L 3366 3988 
Q 3128 4100 2886 4159 
Q 2644 4219 2406 4219 
Q 1781 4219 1451 3797 
Q 1122 3375 1075 2522 
Q 1259 2794 1537 2939 
Q 1816 3084 2150 3084 
Q 2853 3084 3261 2657 
Q 3669 2231 3669 1497 
Q 3669 778 3244 343 
Q 2819 -91 2113 -91 
Q 1303 -91 875 529 
Q 447 1150 447 2328 
Q 447 3434 972 4092 
Q 1497 4750 2381 4750 
Q 2619 4750 2861 4703 
Q 3103 4656 3366 4563 
z
" transform="scale(0.015625)"/>
      </defs>
      <use xlink:href="#DejaVuSans-Oblique-3b1" transform="translate(0 0.78125)"/>
      <use xlink:href="#DejaVuSans-3d" transform="translate(85.400391 0.78125)"/>
      <use xlink:href="#DejaVuSans-2212" transform="translate(208.154297 0.78125)"/>
      <use xlink:href="#DejaVuSans-30" transform="translate(311.425781 0.78125)"/>
      <use xlink:href="#DejaVuSans-2e" transform="translate(375.048828 0.78125)"/>
      <use xlink:href="#DejaVuSans-36" transform="translate(406.835938 0.78125)"/>
     </g>
    </g>
    <g id="line2d_23">
     <path d="M 109.805 231.460312 
L 114.805 231.460312 
L 119.805 231.460312 
" style="fill: none; stroke: #2ca02c; stroke-width: 1.5; stroke-linecap: square"/>
    </g>
    <g id="text_20">
     <!-- $\alpha = -0.2$ -->
     <g transform="translate(127.805 234.960312) scale(0.1 -0.1)">
      <use xlink:href="#DejaVuSans-Oblique-3b1" transform="translate(0 0.78125)"/>
      <use xlink:href="#DejaVuSans-3d" transform="translate(85.400391 0.78125)"/>
      <use xlink:href="#DejaVuSans-2212" transform="translate(208.154297 0.78125)"/>
      <use xlink:href="#DejaVuSans-30" transform="translate(311.425781 0.78125)"/>
      <use xlink:href="#DejaVuSans-2e" transform="translate(375.048828 0.78125)"/>
      <use xlink:href="#DejaVuSans-32" transform="translate(401.335938 0.78125)"/>
     </g>
    </g>
    <g id="line2d_24">
     <path d="M 184.905 212.104062 
L 189.905 212.104062 
L 194.905 212.104062 
" style="fill: none; stroke: #d62728; stroke-width: 1.5; stroke-linecap: square"/>
    </g>
    <g id="text_21">
     <!-- $\alpha = 0.2$ -->
     <g transform="translate(202.905 215.604062) scale(0.1 -0.1)">
      <use xlink:href="#DejaVuSans-Oblique-3b1" transform="translate(0 0.78125)"/>
      <use xlink:href="#DejaVuSans-3d" transform="translate(85.400391 0.78125)"/>
      <use xlink:href="#DejaVuSans-30" transform="translate(188.671875 0.78125)"/>
      <use xlink:href="#DejaVuSans-2e" transform="translate(252.294922 0.78125)"/>
      <use xlink:href="#DejaVuSans-32" transform="translate(278.582031 0.78125)"/>
     </g>
    </g>
    <g id="line2d_25">
     <path d="M 184.905 221.782187 
L 189.905 221.782187 
L 194.905 221.782187 
" style="fill: none; stroke: #9467bd; stroke-width: 1.5; stroke-linecap: square"/>
    </g>
    <g id="text_22">
     <!-- $\alpha = 0.6$ -->
     <g transform="translate(202.905 225.282187) scale(0.1 -0.1)">
      <use xlink:href="#DejaVuSans-Oblique-3b1" transform="translate(0 0.78125)"/>
      <use xlink:href="#DejaVuSans-3d" transform="translate(85.400391 0.78125)"/>
      <use xlink:href="#DejaVuSans-30" transform="translate(188.671875 0.78125)"/>
      <use xlink:href="#DejaVuSans-2e" transform="translate(252.294922 0.78125)"/>
      <use xlink:href="#DejaVuSans-36" transform="translate(284.082031 0.78125)"/>
     </g>
    </g>
    <g id="line2d_26">
     <path d="M 184.905 231.460312 
L 189.905 231.460312 
L 194.905 231.460312 
" style="fill: none; stroke: #8c564b; stroke-width: 1.5; stroke-linecap: square"/>
    </g>
    <g id="text_23">
     <!-- $\alpha = 1$ -->
     <g transform="translate(202.905 234.960312) scale(0.1 -0.1)">
      <use xlink:href="#DejaVuSans-Oblique-3b1" transform="translate(0 0.09375)"/>
      <use xlink:href="#DejaVuSans-3d" transform="translate(85.400391 0.09375)"/>
      <use xlink:href="#DejaVuSans-31" transform="translate(188.671875 0.09375)"/>
     </g>
    </g>
   </g>
  </g>
  <g id="axes_2">
   <g id="patch_7">
    <path d="M 347.51 246.04 
L 568.8 246.04 
L 568.8 29.832 
L 347.51 29.832 
z
" style="fill: #ffffff"/>
   </g>
   <g id="matplotlib.axis_3">
    <g id="xtick_6">
     <g id="line2d_27">
      <g>
       <use xlink:href="#m4efc693dbb" x="357.568636" y="246.04" style="stroke: #000000; stroke-width: 0.8"/>
      </g>
     </g>
     <g id="text_24">
      <!-- −1.0 -->
      <g transform="translate(345.42723 260.638438) scale(0.1 -0.1)">
       <use xlink:href="#DejaVuSans-2212"/>
       <use xlink:href="#DejaVuSans-31" x="83.789062"/>
       <use xlink:href="#DejaVuSans-2e" x="147.412109"/>
       <use xlink:href="#DejaVuSans-30" x="179.199219"/>
      </g>
     </g>
    </g>
    <g id="xtick_7">
     <g id="line2d_28">
      <g>
       <use xlink:href="#m4efc693dbb" x="407.861818" y="246.04" style="stroke: #000000; stroke-width: 0.8"/>
      </g>
     </g>
     <g id="text_25">
      <!-- −0.5 -->
      <g transform="translate(395.720412 260.638438) scale(0.1 -0.1)">
       <use xlink:href="#DejaVuSans-2212"/>
       <use xlink:href="#DejaVuSans-30" x="83.789062"/>
       <use xlink:href="#DejaVuSans-2e" x="147.412109"/>
       <use xlink:href="#DejaVuSans-35" x="179.199219"/>
      </g>
     </g>
    </g>
    <g id="xtick_8">
     <g id="line2d_29">
      <g>
       <use xlink:href="#m4efc693dbb" x="458.155" y="246.04" style="stroke: #000000; stroke-width: 0.8"/>
      </g>
     </g>
     <g id="text_26">
      <!-- 0.0 -->
      <g transform="translate(450.203437 260.638438) scale(0.1 -0.1)">
       <use xlink:href="#DejaVuSans-30"/>
       <use xlink:href="#DejaVuSans-2e" x="63.623047"/>
       <use xlink:href="#DejaVuSans-30" x="95.410156"/>
      </g>
     </g>
    </g>
    <g id="xtick_9">
     <g id="line2d_30">
      <g>
       <use xlink:href="#m4efc693dbb" x="508.448182" y="246.04" style="stroke: #000000; stroke-width: 0.8"/>
      </g>
     </g>
     <g id="text_27">
      <!-- 0.5 -->
      <g transform="translate(500.496619 260.638438) scale(0.1 -0.1)">
       <use xlink:href="#DejaVuSans-30"/>
       <use xlink:href="#DejaVuSans-2e" x="63.623047"/>
       <use xlink:href="#DejaVuSans-35" x="95.410156"/>
      </g>
     </g>
    </g>
    <g id="xtick_10">
     <g id="line2d_31">
      <g>
       <use xlink:href="#m4efc693dbb" x="558.741364" y="246.04" style="stroke: #000000; stroke-width: 0.8"/>
      </g>
     </g>
     <g id="text_28">
      <!-- 1.0 -->
      <g transform="translate(550.789801 260.638438) scale(0.1 -0.1)">
       <use xlink:href="#DejaVuSans-31"/>
       <use xlink:href="#DejaVuSans-2e" x="63.623047"/>
       <use xlink:href="#DejaVuSans-30" x="95.410156"/>
      </g>
     </g>
    </g>
    <g id="text_29">
     <!-- $x$ -->
     <g transform="translate(455.155 274.316562) scale(0.1 -0.1)">
      <use xlink:href="#DejaVuSans-Oblique-78" transform="translate(0 0.3125)"/>
     </g>
    </g>
   </g>
   <g id="matplotlib.axis_4">
    <g id="ytick_10">
     <g id="line2d_32">
      <g>
       <use xlink:href="#m346888813f" x="347.51" y="236.212364" style="stroke: #000000; stroke-width: 0.8"/>
      </g>
     </g>
     <g id="text_30">
      <!-- −1.00 -->
      <g transform="translate(309.864688 240.011582) scale(0.1 -0.1)">
       <use xlink:href="#DejaVuSans-2212"/>
       <use xlink:href="#DejaVuSans-31" x="83.789062"/>
       <use xlink:href="#DejaVuSans-2e" x="147.412109"/>
       <use xlink:href="#DejaVuSans-30" x="179.199219"/>
       <use xlink:href="#DejaVuSans-30" x="242.822266"/>
      </g>
     </g>
    </g>
    <g id="ytick_11">
     <g id="line2d_33">
      <g>
       <use xlink:href="#m346888813f" x="347.51" y="211.643273" style="stroke: #000000; stroke-width: 0.8"/>
      </g>
     </g>
     <g id="text_31">
      <!-- −0.75 -->
      <g transform="translate(309.864688 215.442491) scale(0.1 -0.1)">
       <use xlink:href="#DejaVuSans-2212"/>
       <use xlink:href="#DejaVuSans-30" x="83.789062"/>
       <use xlink:href="#DejaVuSans-2e" x="147.412109"/>
       <use xlink:href="#DejaVuSans-37" x="179.199219"/>
       <use xlink:href="#DejaVuSans-35" x="242.822266"/>
      </g>
     </g>
    </g>
    <g id="ytick_12">
     <g id="line2d_34">
      <g>
       <use xlink:href="#m346888813f" x="347.51" y="187.074182" style="stroke: #000000; stroke-width: 0.8"/>
      </g>
     </g>
     <g id="text_32">
      <!-- −0.50 -->
      <g transform="translate(309.864688 190.873401) scale(0.1 -0.1)">
       <use xlink:href="#DejaVuSans-2212"/>
       <use xlink:href="#DejaVuSans-30" x="83.789062"/>
       <use xlink:href="#DejaVuSans-2e" x="147.412109"/>
       <use xlink:href="#DejaVuSans-35" x="179.199219"/>
       <use xlink:href="#DejaVuSans-30" x="242.822266"/>
      </g>
     </g>
    </g>
    <g id="ytick_13">
     <g id="line2d_35">
      <g>
       <use xlink:href="#m346888813f" x="347.51" y="162.505091" style="stroke: #000000; stroke-width: 0.8"/>
      </g>
     </g>
     <g id="text_33">
      <!-- −0.25 -->
      <g transform="translate(309.864688 166.30431) scale(0.1 -0.1)">
       <use xlink:href="#DejaVuSans-2212"/>
       <use xlink:href="#DejaVuSans-30" x="83.789062"/>
       <use xlink:href="#DejaVuSans-2e" x="147.412109"/>
       <use xlink:href="#DejaVuSans-32" x="179.199219"/>
       <use xlink:href="#DejaVuSans-35" x="242.822266"/>
      </g>
     </g>
    </g>
    <g id="ytick_14">
     <g id="line2d_36">
      <g>
       <use xlink:href="#m346888813f" x="347.51" y="137.936" style="stroke: #000000; stroke-width: 0.8"/>
      </g>
     </g>
     <g id="text_34">
      <!-- 0.00 -->
      <g transform="translate(318.244375 141.735219) scale(0.1 -0.1)">
       <use xlink:href="#DejaVuSans-30"/>
       <use xlink:href="#DejaVuSans-2e" x="63.623047"/>
       <use xlink:href="#DejaVuSans-30" x="95.410156"/>
       <use xlink:href="#DejaVuSans-30" x="159.033203"/>
      </g>
     </g>
    </g>
    <g id="ytick_15">
     <g id="line2d_37">
      <g>
       <use xlink:href="#m346888813f" x="347.51" y="113.366909" style="stroke: #000000; stroke-width: 0.8"/>
      </g>
     </g>
     <g id="text_35">
      <!-- 0.25 -->
      <g transform="translate(318.244375 117.166128) scale(0.1 -0.1)">
       <use xlink:href="#DejaVuSans-30"/>
       <use xlink:href="#DejaVuSans-2e" x="63.623047"/>
       <use xlink:href="#DejaVuSans-32" x="95.410156"/>
       <use xlink:href="#DejaVuSans-35" x="159.033203"/>
      </g>
     </g>
    </g>
    <g id="ytick_16">
     <g id="line2d_38">
      <g>
       <use xlink:href="#m346888813f" x="347.51" y="88.797818" style="stroke: #000000; stroke-width: 0.8"/>
      </g>
     </g>
     <g id="text_36">
      <!-- 0.50 -->
      <g transform="translate(318.244375 92.597037) scale(0.1 -0.1)">
       <use xlink:href="#DejaVuSans-30"/>
       <use xlink:href="#DejaVuSans-2e" x="63.623047"/>
       <use xlink:href="#DejaVuSans-35" x="95.410156"/>
       <use xlink:href="#DejaVuSans-30" x="159.033203"/>
      </g>
     </g>
    </g>
    <g id="ytick_17">
     <g id="line2d_39">
      <g>
       <use xlink:href="#m346888813f" x="347.51" y="64.228727" style="stroke: #000000; stroke-width: 0.8"/>
      </g>
     </g>
     <g id="text_37">
      <!-- 0.75 -->
      <g transform="translate(318.244375 68.027946) scale(0.1 -0.1)">
       <use xlink:href="#DejaVuSans-30"/>
       <use xlink:href="#DejaVuSans-2e" x="63.623047"/>
       <use xlink:href="#DejaVuSans-37" x="95.410156"/>
       <use xlink:href="#DejaVuSans-35" x="159.033203"/>
      </g>
     </g>
    </g>
    <g id="ytick_18">
     <g id="line2d_40">
      <g>
       <use xlink:href="#m346888813f" x="347.51" y="39.659636" style="stroke: #000000; stroke-width: 0.8"/>
      </g>
     </g>
     <g id="text_38">
      <!-- 1.00 -->
      <g transform="translate(318.244375 43.458855) scale(0.1 -0.1)">
       <use xlink:href="#DejaVuSans-31"/>
       <use xlink:href="#DejaVuSans-2e" x="63.623047"/>
       <use xlink:href="#DejaVuSans-30" x="95.410156"/>
       <use xlink:href="#DejaVuSans-30" x="159.033203"/>
      </g>
     </g>
    </g>
    <g id="text_39">
     <!-- $y$ -->
     <g transform="translate(303.764688 140.936) rotate(-90) scale(0.1 -0.1)">
      <use xlink:href="#DejaVuSans-Oblique-79" transform="translate(0 0.3125)"/>
     </g>
    </g>
   </g>
   <g id="line2d_41">
    <path d="M 357.568636 236.212364 
L 359.600684 232.28171 
L 361.632732 228.431274 
L 363.66478 224.661056 
L 365.696827 220.971054 
L 367.728875 217.361271 
L 369.760923 213.831704 
L 371.792971 210.382355 
L 373.825018 207.013224 
L 375.857066 203.72431 
L 377.889114 200.515613 
L 379.921162 197.387134 
L 381.953209 194.338872 
L 383.985257 191.370827 
L 386.017305 188.483 
L 388.049353 185.675391 
L 390.0814 182.947998 
L 392.113448 180.300824 
L 394.145496 177.733866 
L 396.177544 175.247126 
L 398.209591 172.840604 
L 400.241639 170.514299 
L 402.273687 168.268211 
L 404.305735 166.102341 
L 406.337782 164.016688 
L 408.36983 162.011252 
L 410.401878 160.086034 
L 412.433926 158.241034 
L 414.465973 156.476251 
L 416.498021 154.791685 
L 418.530069 153.187337 
L 420.562117 151.663206 
L 422.594164 150.219292 
L 424.626212 148.855596 
L 426.65826 147.572117 
L 428.690308 146.368856 
L 430.722355 145.245812 
L 432.754403 144.202986 
L 434.786451 143.240377 
L 436.818499 142.357985 
L 438.850546 141.555811 
L 440.882594 140.833854 
L 442.914642 140.192115 
L 444.94669 139.630593 
L 446.978737 139.149288 
L 449.010785 138.748201 
L 451.042833 138.427332 
L 453.074881 138.186679 
L 455.106928 138.026245 
L 457.138976 137.946027 
L 459.171024 137.946027 
L 461.203072 138.026245 
L 463.235119 138.186679 
L 465.267167 138.427332 
L 467.299215 138.748201 
L 469.331263 139.149288 
L 471.36331 139.630593 
L 473.395358 140.192115 
L 475.427406 140.833854 
L 477.459454 141.555811 
L 479.491501 142.357985 
L 481.523549 143.240377 
L 483.555597 144.202986 
L 485.587645 145.245812 
L 487.619692 146.368856 
L 489.65174 147.572117 
L 491.683788 148.855596 
L 493.715836 150.219292 
L 495.747883 151.663206 
L 497.779931 153.187337 
L 499.811979 154.791685 
L 501.844027 156.476251 
L 503.876074 158.241034 
L 505.908122 160.086034 
L 507.94017 162.011252 
L 509.972218 164.016688 
L 512.004265 166.102341 
L 514.036313 168.268211 
L 516.068361 170.514299 
L 518.100409 172.840604 
L 520.132456 175.247126 
L 522.164504 177.733866 
L 524.196552 180.300824 
L 526.2286 182.947998 
L 528.260647 185.675391 
L 530.292695 188.483 
L 532.324743 191.370827 
L 534.356791 194.338872 
L 536.388838 197.387134 
L 538.420886 200.515613 
L 540.452934 203.72431 
L 542.484982 207.013224 
L 544.517029 210.382355 
L 546.549077 213.831704 
L 548.581125 217.361271 
L 550.613173 220.971054 
L 552.64522 224.661056 
L 554.677268 228.431274 
L 556.709316 232.28171 
L 558.741364 236.212364 
" clip-path="url(#paaef64f052)" style="fill: none; stroke: #1f77b4; stroke-width: 1.5; stroke-linecap: square"/>
   </g>
   <g id="line2d_42">
    <path d="M 357.568636 196.901818 
L 359.600684 194.543426 
L 361.632732 192.233164 
L 363.66478 189.971033 
L 365.696827 187.757033 
L 367.728875 185.591162 
L 369.760923 183.473422 
L 371.792971 181.403813 
L 373.825018 179.382334 
L 375.857066 177.408986 
L 377.889114 175.483768 
L 379.921162 173.60668 
L 381.953209 171.777723 
L 383.985257 169.996896 
L 386.017305 168.2642 
L 388.049353 166.579634 
L 390.0814 164.943199 
L 392.113448 163.354894 
L 394.145496 161.81472 
L 396.177544 160.322676 
L 398.209591 158.878762 
L 400.241639 157.482979 
L 402.273687 156.135327 
L 404.305735 154.835804 
L 406.337782 153.584413 
L 408.36983 152.381151 
L 410.401878 151.226021 
L 412.433926 150.11902 
L 414.465973 149.06015 
L 416.498021 148.049411 
L 418.530069 147.086802 
L 420.562117 146.172323 
L 422.594164 145.305975 
L 424.626212 144.487758 
L 426.65826 143.71767 
L 428.690308 142.995714 
L 430.722355 142.321887 
L 432.754403 141.696191 
L 434.786451 141.118626 
L 436.818499 140.589191 
L 438.850546 140.107887 
L 440.882594 139.674713 
L 442.914642 139.289669 
L 444.94669 138.952756 
L 446.978737 138.663973 
L 449.010785 138.423321 
L 451.042833 138.230799 
L 453.074881 138.086408 
L 455.106928 137.990147 
L 457.138976 137.942016 
L 459.171024 137.942016 
L 461.203072 137.990147 
L 463.235119 138.086408 
L 465.267167 138.230799 
L 467.299215 138.423321 
L 469.331263 138.663973 
L 471.36331 138.952756 
L 473.395358 139.289669 
L 475.427406 139.674713 
L 477.459454 140.107887 
L 479.491501 140.589191 
L 481.523549 141.118626 
L 483.555597 141.696191 
L 485.587645 142.321887 
L 487.619692 142.995714 
L 489.65174 143.71767 
L 491.683788 144.487758 
L 493.715836 145.305975 
L 495.747883 146.172323 
L 497.779931 147.086802 
L 499.811979 148.049411 
L 501.844027 149.06015 
L 503.876074 150.11902 
L 505.908122 151.226021 
L 507.94017 152.381151 
L 509.972218 153.584413 
L 512.004265 154.835804 
L 514.036313 156.135327 
L 516.068361 157.482979 
L 518.100409 158.878762 
L 520.132456 160.322676 
L 522.164504 161.81472 
L 524.196552 163.354894 
L 526.2286 164.943199 
L 528.260647 166.579634 
L 530.292695 168.2642 
L 532.324743 169.996896 
L 534.356791 171.777723 
L 536.388838 173.60668 
L 538.420886 175.483768 
L 540.452934 177.408986 
L 542.484982 179.382334 
L 544.517029 181.403813 
L 546.549077 183.473422 
L 548.581125 185.591162 
L 550.613173 187.757033 
L 552.64522 189.971033 
L 554.677268 192.233164 
L 556.709316 194.543426 
L 558.741364 196.901818 
" clip-path="url(#paaef64f052)" style="fill: none; stroke: #ff7f0e; stroke-width: 1.5; stroke-linecap: square"/>
   </g>
   <g id="line2d_43">
    <path d="M 357.568636 157.591273 
L 359.600684 156.805142 
L 361.632732 156.035055 
L 363.66478 155.281011 
L 365.696827 154.543011 
L 367.728875 153.821054 
L 369.760923 153.115141 
L 371.792971 152.425271 
L 373.825018 151.751445 
L 375.857066 151.093662 
L 377.889114 150.451923 
L 379.921162 149.826227 
L 381.953209 149.216574 
L 383.985257 148.622965 
L 386.017305 148.0454 
L 388.049353 147.483878 
L 390.0814 146.9384 
L 392.113448 146.408965 
L 394.145496 145.895573 
L 396.177544 145.398225 
L 398.209591 144.916921 
L 400.241639 144.45166 
L 402.273687 144.002442 
L 404.305735 143.569268 
L 406.337782 143.152138 
L 408.36983 142.75105 
L 410.401878 142.366007 
L 412.433926 141.997007 
L 414.465973 141.64405 
L 416.498021 141.307137 
L 418.530069 140.986267 
L 420.562117 140.681441 
L 422.594164 140.392658 
L 424.626212 140.119919 
L 426.65826 139.863223 
L 428.690308 139.622571 
L 430.722355 139.397962 
L 432.754403 139.189397 
L 434.786451 138.996875 
L 436.818499 138.820397 
L 438.850546 138.659962 
L 440.882594 138.515571 
L 442.914642 138.387223 
L 444.94669 138.274919 
L 446.978737 138.178658 
L 449.010785 138.09844 
L 451.042833 138.034266 
L 453.074881 137.986136 
L 455.106928 137.954049 
L 457.138976 137.938005 
L 459.171024 137.938005 
L 461.203072 137.954049 
L 463.235119 137.986136 
L 465.267167 138.034266 
L 467.299215 138.09844 
L 469.331263 138.178658 
L 471.36331 138.274919 
L 473.395358 138.387223 
L 475.427406 138.515571 
L 477.459454 138.659962 
L 479.491501 138.820397 
L 481.523549 138.996875 
L 483.555597 139.189397 
L 485.587645 139.397962 
L 487.619692 139.622571 
L 489.65174 139.863223 
L 491.683788 140.119919 
L 493.715836 140.392658 
L 495.747883 140.681441 
L 497.779931 140.986267 
L 499.811979 141.307137 
L 501.844027 141.64405 
L 503.876074 141.997007 
L 505.908122 142.366007 
L 507.94017 142.75105 
L 509.972218 143.152138 
L 512.004265 143.569268 
L 514.036313 144.002442 
L 516.068361 144.45166 
L 518.100409 144.916921 
L 520.132456 145.398225 
L 522.164504 145.895573 
L 524.196552 146.408965 
L 526.2286 146.9384 
L 528.260647 147.483878 
L 530.292695 148.0454 
L 532.324743 148.622965 
L 534.356791 149.216574 
L 536.388838 149.826227 
L 538.420886 150.451923 
L 540.452934 151.093662 
L 542.484982 151.751445 
L 544.517029 152.425271 
L 546.549077 153.115141 
L 548.581125 153.821054 
L 550.613173 154.543011 
L 552.64522 155.281011 
L 554.677268 156.035055 
L 556.709316 156.805142 
L 558.741364 157.591273 
" clip-path="url(#paaef64f052)" style="fill: none; stroke: #2ca02c; stroke-width: 1.5; stroke-linecap: square"/>
   </g>
   <g id="line2d_44">
    <path d="M 357.568636 118.280727 
L 359.600684 119.066858 
L 361.632732 119.836945 
L 363.66478 120.590989 
L 365.696827 121.328989 
L 367.728875 122.050946 
L 369.760923 122.756859 
L 371.792971 123.446729 
L 373.825018 124.120555 
L 375.857066 124.778338 
L 377.889114 125.420077 
L 379.921162 126.045773 
L 381.953209 126.655426 
L 383.985257 127.249035 
L 386.017305 127.8266 
L 388.049353 128.388122 
L 390.0814 128.9336 
L 392.113448 129.463035 
L 394.145496 129.976427 
L 396.177544 130.473775 
L 398.209591 130.955079 
L 400.241639 131.42034 
L 402.273687 131.869558 
L 404.305735 132.302732 
L 406.337782 132.719862 
L 408.36983 133.12095 
L 410.401878 133.505993 
L 412.433926 133.874993 
L 414.465973 134.22795 
L 416.498021 134.564863 
L 418.530069 134.885733 
L 420.562117 135.190559 
L 422.594164 135.479342 
L 424.626212 135.752081 
L 426.65826 136.008777 
L 428.690308 136.249429 
L 430.722355 136.474038 
L 432.754403 136.682603 
L 434.786451 136.875125 
L 436.818499 137.051603 
L 438.850546 137.212038 
L 440.882594 137.356429 
L 442.914642 137.484777 
L 444.94669 137.597081 
L 446.978737 137.693342 
L 449.010785 137.77356 
L 451.042833 137.837734 
L 453.074881 137.885864 
L 455.106928 137.917951 
L 457.138976 137.933995 
L 459.171024 137.933995 
L 461.203072 137.917951 
L 463.235119 137.885864 
L 465.267167 137.837734 
L 467.299215 137.77356 
L 469.331263 137.693342 
L 471.36331 137.597081 
L 473.395358 137.484777 
L 475.427406 137.356429 
L 477.459454 137.212038 
L 479.491501 137.051603 
L 481.523549 136.875125 
L 483.555597 136.682603 
L 485.587645 136.474038 
L 487.619692 136.249429 
L 489.65174 136.008777 
L 491.683788 135.752081 
L 493.715836 135.479342 
L 495.747883 135.190559 
L 497.779931 134.885733 
L 499.811979 134.564863 
L 501.844027 134.22795 
L 503.876074 133.874993 
L 505.908122 133.505993 
L 507.94017 133.12095 
L 509.972218 132.719862 
L 512.004265 132.302732 
L 514.036313 131.869558 
L 516.068361 131.42034 
L 518.100409 130.955079 
L 520.132456 130.473775 
L 522.164504 129.976427 
L 524.196552 129.463035 
L 526.2286 128.9336 
L 528.260647 128.388122 
L 530.292695 127.8266 
L 532.324743 127.249035 
L 534.356791 126.655426 
L 536.388838 126.045773 
L 538.420886 125.420077 
L 540.452934 124.778338 
L 542.484982 124.120555 
L 544.517029 123.446729 
L 546.549077 122.756859 
L 548.581125 122.050946 
L 550.613173 121.328989 
L 552.64522 120.590989 
L 554.677268 119.836945 
L 556.709316 119.066858 
L 558.741364 118.280727 
" clip-path="url(#paaef64f052)" style="fill: none; stroke: #d62728; stroke-width: 1.5; stroke-linecap: square"/>
   </g>
   <g id="line2d_45">
    <path d="M 357.568636 78.970182 
L 359.600684 81.328574 
L 361.632732 83.638836 
L 363.66478 85.900967 
L 365.696827 88.114967 
L 367.728875 90.280838 
L 369.760923 92.398578 
L 371.792971 94.468187 
L 373.825018 96.489666 
L 375.857066 98.463014 
L 377.889114 100.388232 
L 379.921162 102.26532 
L 381.953209 104.094277 
L 383.985257 105.875104 
L 386.017305 107.6078 
L 388.049353 109.292366 
L 390.0814 110.928801 
L 392.113448 112.517106 
L 394.145496 114.05728 
L 396.177544 115.549324 
L 398.209591 116.993238 
L 400.241639 118.389021 
L 402.273687 119.736673 
L 404.305735 121.036196 
L 406.337782 122.287587 
L 408.36983 123.490849 
L 410.401878 124.645979 
L 412.433926 125.75298 
L 414.465973 126.81185 
L 416.498021 127.822589 
L 418.530069 128.785198 
L 420.562117 129.699677 
L 422.594164 130.566025 
L 424.626212 131.384242 
L 426.65826 132.15433 
L 428.690308 132.876286 
L 430.722355 133.550113 
L 432.754403 134.175809 
L 434.786451 134.753374 
L 436.818499 135.282809 
L 438.850546 135.764113 
L 440.882594 136.197287 
L 442.914642 136.582331 
L 444.94669 136.919244 
L 446.978737 137.208027 
L 449.010785 137.448679 
L 451.042833 137.641201 
L 453.074881 137.785592 
L 455.106928 137.881853 
L 457.138976 137.929984 
L 459.171024 137.929984 
L 461.203072 137.881853 
L 463.235119 137.785592 
L 465.267167 137.641201 
L 467.299215 137.448679 
L 469.331263 137.208027 
L 471.36331 136.919244 
L 473.395358 136.582331 
L 475.427406 136.197287 
L 477.459454 135.764113 
L 479.491501 135.282809 
L 481.523549 134.753374 
L 483.555597 134.175809 
L 485.587645 133.550113 
L 487.619692 132.876286 
L 489.65174 132.15433 
L 491.683788 131.384242 
L 493.715836 130.566025 
L 495.747883 129.699677 
L 497.779931 128.785198 
L 499.811979 127.822589 
L 501.844027 126.81185 
L 503.876074 125.75298 
L 505.908122 124.645979 
L 507.94017 123.490849 
L 509.972218 122.287587 
L 512.004265 121.036196 
L 514.036313 119.736673 
L 516.068361 118.389021 
L 518.100409 116.993238 
L 520.132456 115.549324 
L 522.164504 114.05728 
L 524.196552 112.517106 
L 526.2286 110.928801 
L 528.260647 109.292366 
L 530.292695 107.6078 
L 532.324743 105.875104 
L 534.356791 104.094277 
L 536.388838 102.26532 
L 538.420886 100.388232 
L 540.452934 98.463014 
L 542.484982 96.489666 
L 544.517029 94.468187 
L 546.549077 92.398578 
L 548.581125 90.280838 
L 550.613173 88.114967 
L 552.64522 85.900967 
L 554.677268 83.638836 
L 556.709316 81.328574 
L 558.741364 78.970182 
" clip-path="url(#paaef64f052)" style="fill: none; stroke: #9467bd; stroke-width: 1.5; stroke-linecap: square"/>
   </g>
   <g id="line2d_46">
    <path d="M 357.568636 39.659636 
L 359.600684 43.59029 
L 361.632732 47.440726 
L 363.66478 51.210944 
L 365.696827 54.900946 
L 367.728875 58.510729 
L 369.760923 62.040296 
L 371.792971 65.489645 
L 373.825018 68.858776 
L 375.857066 72.14769 
L 377.889114 75.356387 
L 379.921162 78.484866 
L 381.953209 81.533128 
L 383.985257 84.501173 
L 386.017305 87.389 
L 388.049353 90.196609 
L 390.0814 92.924002 
L 392.113448 95.571176 
L 394.145496 98.138134 
L 396.177544 100.624874 
L 398.209591 103.031396 
L 400.241639 105.357701 
L 402.273687 107.603789 
L 404.305735 109.769659 
L 406.337782 111.855312 
L 408.36983 113.860748 
L 410.401878 115.785966 
L 412.433926 117.630966 
L 414.465973 119.395749 
L 416.498021 121.080315 
L 418.530069 122.684663 
L 420.562117 124.208794 
L 422.594164 125.652708 
L 424.626212 127.016404 
L 426.65826 128.299883 
L 428.690308 129.503144 
L 430.722355 130.626188 
L 432.754403 131.669014 
L 434.786451 132.631623 
L 436.818499 133.514015 
L 438.850546 134.316189 
L 440.882594 135.038146 
L 442.914642 135.679885 
L 444.94669 136.241407 
L 446.978737 136.722712 
L 449.010785 137.123799 
L 451.042833 137.444668 
L 453.074881 137.685321 
L 455.106928 137.845755 
L 457.138976 137.925973 
L 459.171024 137.925973 
L 461.203072 137.845755 
L 463.235119 137.685321 
L 465.267167 137.444668 
L 467.299215 137.123799 
L 469.331263 136.722712 
L 471.36331 136.241407 
L 473.395358 135.679885 
L 475.427406 135.038146 
L 477.459454 134.316189 
L 479.491501 133.514015 
L 481.523549 132.631623 
L 483.555597 131.669014 
L 485.587645 130.626188 
L 487.619692 129.503144 
L 489.65174 128.299883 
L 491.683788 127.016404 
L 493.715836 125.652708 
L 495.747883 124.208794 
L 497.779931 122.684663 
L 499.811979 121.080315 
L 501.844027 119.395749 
L 503.876074 117.630966 
L 505.908122 115.785966 
L 507.94017 113.860748 
L 509.972218 111.855312 
L 512.004265 109.769659 
L 514.036313 107.603789 
L 516.068361 105.357701 
L 518.100409 103.031396 
L 520.132456 100.624874 
L 522.164504 98.138134 
L 524.196552 95.571176 
L 526.2286 92.924002 
L 528.260647 90.196609 
L 530.292695 87.389 
L 532.324743 84.501173 
L 534.356791 81.533128 
L 536.388838 78.484866 
L 538.420886 75.356387 
L 540.452934 72.14769 
L 542.484982 68.858776 
L 544.517029 65.489645 
L 546.549077 62.040296 
L 548.581125 58.510729 
L 550.613173 54.900946 
L 552.64522 51.210944 
L 554.677268 47.440726 
L 556.709316 43.59029 
L 558.741364 39.659636 
" clip-path="url(#paaef64f052)" style="fill: none; stroke: #8c564b; stroke-width: 1.5; stroke-linecap: square"/>
   </g>
   <g id="patch_8">
    <path d="M 347.51 246.04 
L 347.51 29.832 
" style="fill: none; stroke: #000000; stroke-width: 0.8; stroke-linejoin: miter; stroke-linecap: square"/>
   </g>
   <g id="patch_9">
    <path d="M 568.8 246.04 
L 568.8 29.832 
" style="fill: none; stroke: #000000; stroke-width: 0.8; stroke-linejoin: miter; stroke-linecap: square"/>
   </g>
   <g id="patch_10">
    <path d="M 347.51 246.04 
L 568.8 246.04 
" style="fill: none; stroke: #000000; stroke-width: 0.8; stroke-linejoin: miter; stroke-linecap: square"/>
   </g>
   <g id="patch_11">
    <path d="M 347.51 29.832 
L 568.8 29.832 
" style="fill: none; stroke: #000000; stroke-width: 0.8; stroke-linejoin: miter; stroke-linecap: square"/>
   </g>
   <g id="text_40">
    <!-- $y = \alpha x^2$ -->
    <g transform="translate(436.615 23.832) scale(0.12 -0.12)">
     <use xlink:href="#DejaVuSans-Oblique-79" transform="translate(0 0.765625)"/>
     <use xlink:href="#DejaVuSans-3d" transform="translate(78.662109 0.765625)"/>
     <use xlink:href="#DejaVuSans-Oblique-3b1" transform="translate(181.933594 0.765625)"/>
     <use xlink:href="#DejaVuSans-Oblique-78" transform="translate(247.851562 0.765625)"/>
     <use xlink:href="#DejaVuSans-32" transform="translate(311.497396 39.046875) scale(0.7)"/>
    </g>
   </g>
   <g id="legend_2">
    <g id="line2d_47">
     <path d="M 394.205 212.104062 
L 399.205 212.104062 
L 404.205 212.104062 
" style="fill: none; stroke: #1f77b4; stroke-width: 1.5; stroke-linecap: square"/>
    </g>
    <g id="text_41">
     <!-- $\alpha = -1$ -->
     <g transform="translate(412.205 215.604062) scale(0.1 -0.1)">
      <use xlink:href="#DejaVuSans-Oblique-3b1" transform="translate(0 0.09375)"/>
      <use xlink:href="#DejaVuSans-3d" transform="translate(85.400391 0.09375)"/>
      <use xlink:href="#DejaVuSans-2212" transform="translate(208.154297 0.09375)"/>
      <use xlink:href="#DejaVuSans-31" transform="translate(311.425781 0.09375)"/>
     </g>
    </g>
    <g id="line2d_48">
     <path d="M 394.205 221.782187 
L 399.205 221.782187 
L 404.205 221.782187 
" style="fill: none; stroke: #ff7f0e; stroke-width: 1.5; stroke-linecap: square"/>
    </g>
    <g id="text_42">
     <!-- $\alpha = -0.6$ -->
     <g transform="translate(412.205 225.282187) scale(0.1 -0.1)">
      <use xlink:href="#DejaVuSans-Oblique-3b1" transform="translate(0 0.78125)"/>
      <use xlink:href="#DejaVuSans-3d" transform="translate(85.400391 0.78125)"/>
      <use xlink:href="#DejaVuSans-2212" transform="translate(208.154297 0.78125)"/>
      <use xlink:href="#DejaVuSans-30" transform="translate(311.425781 0.78125)"/>
      <use xlink:href="#DejaVuSans-2e" transform="translate(375.048828 0.78125)"/>
      <use xlink:href="#DejaVuSans-36" transform="translate(406.835938 0.78125)"/>
     </g>
    </g>
    <g id="line2d_49">
     <path d="M 394.205 231.460312 
L 399.205 231.460312 
L 404.205 231.460312 
" style="fill: none; stroke: #2ca02c; stroke-width: 1.5; stroke-linecap: square"/>
    </g>
    <g id="text_43">
     <!-- $\alpha = -0.2$ -->
     <g transform="translate(412.205 234.960312) scale(0.1 -0.1)">
      <use xlink:href="#DejaVuSans-Oblique-3b1" transform="translate(0 0.78125)"/>
      <use xlink:href="#DejaVuSans-3d" transform="translate(85.400391 0.78125)"/>
      <use xlink:href="#DejaVuSans-2212" transform="translate(208.154297 0.78125)"/>
      <use xlink:href="#DejaVuSans-30" transform="translate(311.425781 0.78125)"/>
      <use xlink:href="#DejaVuSans-2e" transform="translate(375.048828 0.78125)"/>
      <use xlink:href="#DejaVuSans-32" transform="translate(401.335938 0.78125)"/>
     </g>
    </g>
    <g id="line2d_50">
     <path d="M 469.305 212.104062 
L 474.305 212.104062 
L 479.305 212.104062 
" style="fill: none; stroke: #d62728; stroke-width: 1.5; stroke-linecap: square"/>
    </g>
    <g id="text_44">
     <!-- $\alpha = 0.2$ -->
     <g transform="translate(487.305 215.604062) scale(0.1 -0.1)">
      <use xlink:href="#DejaVuSans-Oblique-3b1" transform="translate(0 0.78125)"/>
      <use xlink:href="#DejaVuSans-3d" transform="translate(85.400391 0.78125)"/>
      <use xlink:href="#DejaVuSans-30" transform="translate(188.671875 0.78125)"/>
      <use xlink:href="#DejaVuSans-2e" transform="translate(252.294922 0.78125)"/>
      <use xlink:href="#DejaVuSans-32" transform="translate(278.582031 0.78125)"/>
     </g>
    </g>
    <g id="line2d_51">
     <path d="M 469.305 221.782187 
L 474.305 221.782187 
L 479.305 221.782187 
" style="fill: none; stroke: #9467bd; stroke-width: 1.5; stroke-linecap: square"/>
    </g>
    <g id="text_45">
     <!-- $\alpha = 0.6$ -->
     <g transform="translate(487.305 225.282187) scale(0.1 -0.1)">
      <use xlink:href="#DejaVuSans-Oblique-3b1" transform="translate(0 0.78125)"/>
      <use xlink:href="#DejaVuSans-3d" transform="translate(85.400391 0.78125)"/>
      <use xlink:href="#DejaVuSans-30" transform="translate(188.671875 0.78125)"/>
      <use xlink:href="#DejaVuSans-2e" transform="translate(252.294922 0.78125)"/>
      <use xlink:href="#DejaVuSans-36" transform="translate(284.082031 0.78125)"/>
     </g>
    </g>
    <g id="line2d_52">
     <path d="M 469.305 231.460312 
L 474.305 231.460312 
L 479.305 231.460312 
" style="fill: none; stroke: #8c564b; stroke-width: 1.5; stroke-linecap: square"/>
    </g>
    <g id="text_46">
     <!-- $\alpha = 1$ -->
     <g transform="translate(487.305 234.960312) scale(0.1 -0.1)">
      <use xlink:href="#DejaVuSans-Oblique-3b1" transform="translate(0 0.09375)"/>
      <use xlink:href="#DejaVuSans-3d" transform="translate(85.400391 0.09375)"/>
      <use xlink:href="#DejaVuSans-31" transform="translate(188.671875 0.09375)"/>
     </g>
    </g>
   </g>
  </g>
  <g id="axes_3">
   <g id="patch_12">
    <path d="M 631.91 246.04 
L 853.2 246.04 
L 853.2 29.832 
L 631.91 29.832 
z
" style="fill: #ffffff"/>
   </g>
   <g id="matplotlib.axis_5">
    <g id="xtick_11">
     <g id="line2d_53">
      <g>
       <use xlink:href="#m4efc693dbb" x="641.968636" y="246.04" style="stroke: #000000; stroke-width: 0.8"/>
      </g>
     </g>
     <g id="text_47">
      <!-- −1.0 -->
      <g transform="translate(629.82723 260.638438) scale(0.1 -0.1)">
       <use xlink:href="#DejaVuSans-2212"/>
       <use xlink:href="#DejaVuSans-31" x="83.789062"/>
       <use xlink:href="#DejaVuSans-2e" x="147.412109"/>
       <use xlink:href="#DejaVuSans-30" x="179.199219"/>
      </g>
     </g>
    </g>
    <g id="xtick_12">
     <g id="line2d_54">
      <g>
       <use xlink:href="#m4efc693dbb" x="692.261818" y="246.04" style="stroke: #000000; stroke-width: 0.8"/>
      </g>
     </g>
     <g id="text_48">
      <!-- −0.5 -->
      <g transform="translate(680.120412 260.638438) scale(0.1 -0.1)">
       <use xlink:href="#DejaVuSans-2212"/>
       <use xlink:href="#DejaVuSans-30" x="83.789062"/>
       <use xlink:href="#DejaVuSans-2e" x="147.412109"/>
       <use xlink:href="#DejaVuSans-35" x="179.199219"/>
      </g>
     </g>
    </g>
    <g id="xtick_13">
     <g id="line2d_55">
      <g>
       <use xlink:href="#m4efc693dbb" x="742.555" y="246.04" style="stroke: #000000; stroke-width: 0.8"/>
      </g>
     </g>
     <g id="text_49">
      <!-- 0.0 -->
      <g transform="translate(734.603437 260.638438) scale(0.1 -0.1)">
       <use xlink:href="#DejaVuSans-30"/>
       <use xlink:href="#DejaVuSans-2e" x="63.623047"/>
       <use xlink:href="#DejaVuSans-30" x="95.410156"/>
      </g>
     </g>
    </g>
    <g id="xtick_14">
     <g id="line2d_56">
      <g>
       <use xlink:href="#m4efc693dbb" x="792.848182" y="246.04" style="stroke: #000000; stroke-width: 0.8"/>
      </g>
     </g>
     <g id="text_50">
      <!-- 0.5 -->
      <g transform="translate(784.896619 260.638438) scale(0.1 -0.1)">
       <use xlink:href="#DejaVuSans-30"/>
       <use xlink:href="#DejaVuSans-2e" x="63.623047"/>
       <use xlink:href="#DejaVuSans-35" x="95.410156"/>
      </g>
     </g>
    </g>
    <g id="xtick_15">
     <g id="line2d_57">
      <g>
       <use xlink:href="#m4efc693dbb" x="843.141364" y="246.04" style="stroke: #000000; stroke-width: 0.8"/>
      </g>
     </g>
     <g id="text_51">
      <!-- 1.0 -->
      <g transform="translate(835.189801 260.638438) scale(0.1 -0.1)">
       <use xlink:href="#DejaVuSans-31"/>
       <use xlink:href="#DejaVuSans-2e" x="63.623047"/>
       <use xlink:href="#DejaVuSans-30" x="95.410156"/>
      </g>
     </g>
    </g>
    <g id="text_52">
     <!-- $x$ -->
     <g transform="translate(739.555 274.316562) scale(0.1 -0.1)">
      <use xlink:href="#DejaVuSans-Oblique-78" transform="translate(0 0.3125)"/>
     </g>
    </g>
   </g>
   <g id="matplotlib.axis_6">
    <g id="ytick_19">
     <g id="line2d_58">
      <g>
       <use xlink:href="#m346888813f" x="631.91" y="236.212364" style="stroke: #000000; stroke-width: 0.8"/>
      </g>
     </g>
     <g id="text_53">
      <!-- −1.00 -->
      <g transform="translate(594.264687 240.011582) scale(0.1 -0.1)">
       <use xlink:href="#DejaVuSans-2212"/>
       <use xlink:href="#DejaVuSans-31" x="83.789062"/>
       <use xlink:href="#DejaVuSans-2e" x="147.412109"/>
       <use xlink:href="#DejaVuSans-30" x="179.199219"/>
       <use xlink:href="#DejaVuSans-30" x="242.822266"/>
      </g>
     </g>
    </g>
    <g id="ytick_20">
     <g id="line2d_59">
      <g>
       <use xlink:href="#m346888813f" x="631.91" y="211.643273" style="stroke: #000000; stroke-width: 0.8"/>
      </g>
     </g>
     <g id="text_54">
      <!-- −0.75 -->
      <g transform="translate(594.264687 215.442491) scale(0.1 -0.1)">
       <use xlink:href="#DejaVuSans-2212"/>
       <use xlink:href="#DejaVuSans-30" x="83.789062"/>
       <use xlink:href="#DejaVuSans-2e" x="147.412109"/>
       <use xlink:href="#DejaVuSans-37" x="179.199219"/>
       <use xlink:href="#DejaVuSans-35" x="242.822266"/>
      </g>
     </g>
    </g>
    <g id="ytick_21">
     <g id="line2d_60">
      <g>
       <use xlink:href="#m346888813f" x="631.91" y="187.074182" style="stroke: #000000; stroke-width: 0.8"/>
      </g>
     </g>
     <g id="text_55">
      <!-- −0.50 -->
      <g transform="translate(594.264687 190.873401) scale(0.1 -0.1)">
       <use xlink:href="#DejaVuSans-2212"/>
       <use xlink:href="#DejaVuSans-30" x="83.789062"/>
       <use xlink:href="#DejaVuSans-2e" x="147.412109"/>
       <use xlink:href="#DejaVuSans-35" x="179.199219"/>
       <use xlink:href="#DejaVuSans-30" x="242.822266"/>
      </g>
     </g>
    </g>
    <g id="ytick_22">
     <g id="line2d_61">
      <g>
       <use xlink:href="#m346888813f" x="631.91" y="162.505091" style="stroke: #000000; stroke-width: 0.8"/>
      </g>
     </g>
     <g id="text_56">
      <!-- −0.25 -->
      <g transform="translate(594.264687 166.30431) scale(0.1 -0.1)">
       <use xlink:href="#DejaVuSans-2212"/>
       <use xlink:href="#DejaVuSans-30" x="83.789062"/>
       <use xlink:href="#DejaVuSans-2e" x="147.412109"/>
       <use xlink:href="#DejaVuSans-32" x="179.199219"/>
       <use xlink:href="#DejaVuSans-35" x="242.822266"/>
      </g>
     </g>
    </g>
    <g id="ytick_23">
     <g id="line2d_62">
      <g>
       <use xlink:href="#m346888813f" x="631.91" y="137.936" style="stroke: #000000; stroke-width: 0.8"/>
      </g>
     </g>
     <g id="text_57">
      <!-- 0.00 -->
      <g transform="translate(602.644375 141.735219) scale(0.1 -0.1)">
       <use xlink:href="#DejaVuSans-30"/>
       <use xlink:href="#DejaVuSans-2e" x="63.623047"/>
       <use xlink:href="#DejaVuSans-30" x="95.410156"/>
       <use xlink:href="#DejaVuSans-30" x="159.033203"/>
      </g>
     </g>
    </g>
    <g id="ytick_24">
     <g id="line2d_63">
      <g>
       <use xlink:href="#m346888813f" x="631.91" y="113.366909" style="stroke: #000000; stroke-width: 0.8"/>
      </g>
     </g>
     <g id="text_58">
      <!-- 0.25 -->
      <g transform="translate(602.644375 117.166128) scale(0.1 -0.1)">
       <use xlink:href="#DejaVuSans-30"/>
       <use xlink:href="#DejaVuSans-2e" x="63.623047"/>
       <use xlink:href="#DejaVuSans-32" x="95.410156"/>
       <use xlink:href="#DejaVuSans-35" x="159.033203"/>
      </g>
     </g>
    </g>
    <g id="ytick_25">
     <g id="line2d_64">
      <g>
       <use xlink:href="#m346888813f" x="631.91" y="88.797818" style="stroke: #000000; stroke-width: 0.8"/>
      </g>
     </g>
     <g id="text_59">
      <!-- 0.50 -->
      <g transform="translate(602.644375 92.597037) scale(0.1 -0.1)">
       <use xlink:href="#DejaVuSans-30"/>
       <use xlink:href="#DejaVuSans-2e" x="63.623047"/>
       <use xlink:href="#DejaVuSans-35" x="95.410156"/>
       <use xlink:href="#DejaVuSans-30" x="159.033203"/>
      </g>
     </g>
    </g>
    <g id="ytick_26">
     <g id="line2d_65">
      <g>
       <use xlink:href="#m346888813f" x="631.91" y="64.228727" style="stroke: #000000; stroke-width: 0.8"/>
      </g>
     </g>
     <g id="text_60">
      <!-- 0.75 -->
      <g transform="translate(602.644375 68.027946) scale(0.1 -0.1)">
       <use xlink:href="#DejaVuSans-30"/>
       <use xlink:href="#DejaVuSans-2e" x="63.623047"/>
       <use xlink:href="#DejaVuSans-37" x="95.410156"/>
       <use xlink:href="#DejaVuSans-35" x="159.033203"/>
      </g>
     </g>
    </g>
    <g id="ytick_27">
     <g id="line2d_66">
      <g>
       <use xlink:href="#m346888813f" x="631.91" y="39.659636" style="stroke: #000000; stroke-width: 0.8"/>
      </g>
     </g>
     <g id="text_61">
      <!-- 1.00 -->
      <g transform="translate(602.644375 43.458855) scale(0.1 -0.1)">
       <use xlink:href="#DejaVuSans-31"/>
       <use xlink:href="#DejaVuSans-2e" x="63.623047"/>
       <use xlink:href="#DejaVuSans-30" x="95.410156"/>
       <use xlink:href="#DejaVuSans-30" x="159.033203"/>
      </g>
     </g>
    </g>
    <g id="text_62">
     <!-- $y$ -->
     <g transform="translate(588.164687 140.936) rotate(-90) scale(0.1 -0.1)">
      <use xlink:href="#DejaVuSans-Oblique-79" transform="translate(0 0.3125)"/>
     </g>
    </g>
   </g>
   <g id="line2d_67">
    <path d="M 641.968636 39.659636 
L 644.000684 45.496264 
L 646.032732 51.097101 
L 648.06478 56.467008 
L 650.096827 61.610849 
L 652.128875 66.533484 
L 654.160923 71.239775 
L 656.192971 75.734584 
L 658.225018 80.022772 
L 660.257066 84.109201 
L 662.289114 87.998733 
L 664.321162 91.696229 
L 666.353209 95.206552 
L 668.385257 98.534562 
L 670.417305 101.685121 
L 672.449353 104.663091 
L 674.4814 107.473334 
L 676.513448 110.120712 
L 678.545496 112.610085 
L 680.577544 114.946316 
L 682.609591 117.134266 
L 684.641639 119.178798 
L 686.673687 121.084772 
L 688.705735 122.85705 
L 690.737782 124.500494 
L 692.76983 126.019966 
L 694.801878 127.420327 
L 696.833926 128.706439 
L 698.865973 129.883164 
L 700.898021 130.955363 
L 702.930069 131.927898 
L 704.962117 132.80563 
L 706.994164 133.593422 
L 709.026212 134.296135 
L 711.05826 134.91863 
L 713.090308 135.465769 
L 715.122355 135.942415 
L 717.154403 136.353428 
L 719.186451 136.70367 
L 721.218499 136.998003 
L 723.250546 137.241289 
L 725.282594 137.438389 
L 727.314642 137.594164 
L 729.34669 137.713478 
L 731.378737 137.80119 
L 733.410785 137.862164 
L 735.442833 137.901259 
L 737.474881 137.923339 
L 739.506928 137.933265 
L 741.538976 137.935899 
L 743.571024 137.936101 
L 745.603072 137.938735 
L 747.635119 137.948661 
L 749.667167 137.970741 
L 751.699215 138.009836 
L 753.731263 138.07081 
L 755.76331 138.158522 
L 757.795358 138.277836 
L 759.827406 138.433611 
L 761.859454 138.630711 
L 763.891501 138.873997 
L 765.923549 139.16833 
L 767.955597 139.518572 
L 769.987645 139.929585 
L 772.019692 140.406231 
L 774.05174 140.95337 
L 776.083788 141.575865 
L 778.115836 142.278578 
L 780.147883 143.06637 
L 782.179931 143.944102 
L 784.211979 144.916637 
L 786.244027 145.988836 
L 788.276074 147.165561 
L 790.308122 148.451673 
L 792.34017 149.852034 
L 794.372218 151.371506 
L 796.404265 153.01495 
L 798.436313 154.787228 
L 800.468361 156.693202 
L 802.500409 158.737734 
L 804.532456 160.925684 
L 806.564504 163.261915 
L 808.596552 165.751288 
L 810.6286 168.398666 
L 812.660647 171.208909 
L 814.692695 174.186879 
L 816.724743 177.337438 
L 818.756791 180.665448 
L 820.788838 184.175771 
L 822.820886 187.873267 
L 824.852934 191.762799 
L 826.884982 195.849228 
L 828.917029 200.137416 
L 830.949077 204.632225 
L 832.981125 209.338516 
L 835.013173 214.261151 
L 837.04522 219.404992 
L 839.077268 224.774899 
L 841.109316 230.375736 
L 843.141364 236.212364 
" clip-path="url(#p7e6dab3924)" style="fill: none; stroke: #1f77b4; stroke-width: 1.5; stroke-linecap: square"/>
   </g>
   <g id="line2d_68">
    <path d="M 641.968636 78.970182 
L 644.000684 82.472158 
L 646.032732 85.83266 
L 648.06478 89.054605 
L 650.096827 92.140909 
L 652.128875 95.09449 
L 654.160923 97.918265 
L 656.192971 100.61515 
L 658.225018 103.188063 
L 660.257066 105.639921 
L 662.289114 107.97364 
L 664.321162 110.192138 
L 666.353209 112.298331 
L 668.385257 114.295137 
L 670.417305 116.185473 
L 672.449353 117.972255 
L 674.4814 119.658401 
L 676.513448 121.246827 
L 678.545496 122.740451 
L 680.577544 124.14219 
L 682.609591 125.45496 
L 684.641639 126.681679 
L 686.673687 127.825263 
L 688.705735 128.88863 
L 690.737782 129.874696 
L 692.76983 130.78638 
L 694.801878 131.626596 
L 696.833926 132.398264 
L 698.865973 133.104298 
L 700.898021 133.747618 
L 702.930069 134.331139 
L 704.962117 134.857778 
L 706.994164 135.330453 
L 709.026212 135.752081 
L 711.05826 136.125578 
L 713.090308 136.453862 
L 715.122355 136.739849 
L 717.154403 136.986457 
L 719.186451 137.196602 
L 721.218499 137.373202 
L 723.250546 137.519173 
L 725.282594 137.637433 
L 727.314642 137.730899 
L 729.34669 137.802487 
L 731.378737 137.855114 
L 733.410785 137.891698 
L 735.442833 137.915156 
L 737.474881 137.928404 
L 739.506928 137.934359 
L 741.538976 137.935939 
L 743.571024 137.936061 
L 745.603072 137.937641 
L 747.635119 137.943596 
L 749.667167 137.956844 
L 751.699215 137.980302 
L 753.731263 138.016886 
L 755.76331 138.069513 
L 757.795358 138.141101 
L 759.827406 138.234567 
L 761.859454 138.352827 
L 763.891501 138.498798 
L 765.923549 138.675398 
L 767.955597 138.885543 
L 769.987645 139.132151 
L 772.019692 139.418138 
L 774.05174 139.746422 
L 776.083788 140.119919 
L 778.115836 140.541547 
L 780.147883 141.014222 
L 782.179931 141.540861 
L 784.211979 142.124382 
L 786.244027 142.767702 
L 788.276074 143.473736 
L 790.308122 144.245404 
L 792.34017 145.08562 
L 794.372218 145.997304 
L 796.404265 146.98337 
L 798.436313 148.046737 
L 800.468361 149.190321 
L 802.500409 150.41704 
L 804.532456 151.72981 
L 806.564504 153.131549 
L 808.596552 154.625173 
L 810.6286 156.213599 
L 812.660647 157.899745 
L 814.692695 159.686527 
L 816.724743 161.576863 
L 818.756791 163.573669 
L 820.788838 165.679862 
L 822.820886 167.89836 
L 824.852934 170.232079 
L 826.884982 172.683937 
L 828.917029 175.25685 
L 830.949077 177.953735 
L 832.981125 180.77751 
L 835.013173 183.731091 
L 837.04522 186.817395 
L 839.077268 190.03934 
L 841.109316 193.399842 
L 843.141364 196.901818 
" clip-path="url(#p7e6dab3924)" style="fill: none; stroke: #ff7f0e; stroke-width: 1.5; stroke-linecap: square"/>
   </g>
   <g id="line2d_69">
    <path d="M 641.968636 118.280727 
L 644.000684 119.448053 
L 646.032732 120.56822 
L 648.06478 121.642202 
L 650.096827 122.67097 
L 652.128875 123.655497 
L 654.160923 124.596755 
L 656.192971 125.495717 
L 658.225018 126.353354 
L 660.257066 127.17064 
L 662.289114 127.948547 
L 664.321162 128.688046 
L 666.353209 129.39011 
L 668.385257 130.055712 
L 670.417305 130.685824 
L 672.449353 131.281418 
L 674.4814 131.843467 
L 676.513448 132.372942 
L 678.545496 132.870817 
L 680.577544 133.338063 
L 682.609591 133.775653 
L 684.641639 134.18456 
L 686.673687 134.565754 
L 688.705735 134.92021 
L 690.737782 135.248899 
L 692.76983 135.552793 
L 694.801878 135.832865 
L 696.833926 136.090088 
L 698.865973 136.325433 
L 700.898021 136.539873 
L 702.930069 136.73438 
L 704.962117 136.909926 
L 706.994164 137.067484 
L 709.026212 137.208027 
L 711.05826 137.332526 
L 713.090308 137.441954 
L 715.122355 137.537283 
L 717.154403 137.619486 
L 719.186451 137.689534 
L 721.218499 137.748401 
L 723.250546 137.797058 
L 725.282594 137.836478 
L 727.314642 137.867633 
L 729.34669 137.891496 
L 731.378737 137.909038 
L 733.410785 137.921233 
L 735.442833 137.929052 
L 737.474881 137.933468 
L 739.506928 137.935453 
L 741.538976 137.93598 
L 743.571024 137.93602 
L 745.603072 137.936547 
L 747.635119 137.938532 
L 749.667167 137.942948 
L 751.699215 137.950767 
L 753.731263 137.962962 
L 755.76331 137.980504 
L 757.795358 138.004367 
L 759.827406 138.035522 
L 761.859454 138.074942 
L 763.891501 138.123599 
L 765.923549 138.182466 
L 767.955597 138.252514 
L 769.987645 138.334717 
L 772.019692 138.430046 
L 774.05174 138.539474 
L 776.083788 138.663973 
L 778.115836 138.804516 
L 780.147883 138.962074 
L 782.179931 139.13762 
L 784.211979 139.332127 
L 786.244027 139.546567 
L 788.276074 139.781912 
L 790.308122 140.039135 
L 792.34017 140.319207 
L 794.372218 140.623101 
L 796.404265 140.95179 
L 798.436313 141.306246 
L 800.468361 141.68744 
L 802.500409 142.096347 
L 804.532456 142.533937 
L 806.564504 143.001183 
L 808.596552 143.499058 
L 810.6286 144.028533 
L 812.660647 144.590582 
L 814.692695 145.186176 
L 816.724743 145.816288 
L 818.756791 146.48189 
L 820.788838 147.183954 
L 822.820886 147.923453 
L 824.852934 148.70136 
L 826.884982 149.518646 
L 828.917029 150.376283 
L 830.949077 151.275245 
L 832.981125 152.216503 
L 835.013173 153.20103 
L 837.04522 154.229798 
L 839.077268 155.30378 
L 841.109316 156.423947 
L 843.141364 157.591273 
" clip-path="url(#p7e6dab3924)" style="fill: none; stroke: #2ca02c; stroke-width: 1.5; stroke-linecap: square"/>
   </g>
   <g id="line2d_70">
    <path d="M 641.968636 157.591273 
L 644.000684 156.423947 
L 646.032732 155.30378 
L 648.06478 154.229798 
L 650.096827 153.20103 
L 652.128875 152.216503 
L 654.160923 151.275245 
L 656.192971 150.376283 
L 658.225018 149.518646 
L 660.257066 148.70136 
L 662.289114 147.923453 
L 664.321162 147.183954 
L 666.353209 146.48189 
L 668.385257 145.816288 
L 670.417305 145.186176 
L 672.449353 144.590582 
L 674.4814 144.028533 
L 676.513448 143.499058 
L 678.545496 143.001183 
L 680.577544 142.533937 
L 682.609591 142.096347 
L 684.641639 141.68744 
L 686.673687 141.306246 
L 688.705735 140.95179 
L 690.737782 140.623101 
L 692.76983 140.319207 
L 694.801878 140.039135 
L 696.833926 139.781912 
L 698.865973 139.546567 
L 700.898021 139.332127 
L 702.930069 139.13762 
L 704.962117 138.962074 
L 706.994164 138.804516 
L 709.026212 138.663973 
L 711.05826 138.539474 
L 713.090308 138.430046 
L 715.122355 138.334717 
L 717.154403 138.252514 
L 719.186451 138.182466 
L 721.218499 138.123599 
L 723.250546 138.074942 
L 725.282594 138.035522 
L 727.314642 138.004367 
L 729.34669 137.980504 
L 731.378737 137.962962 
L 733.410785 137.950767 
L 735.442833 137.942948 
L 737.474881 137.938532 
L 739.506928 137.936547 
L 741.538976 137.93602 
L 743.571024 137.93598 
L 745.603072 137.935453 
L 747.635119 137.933468 
L 749.667167 137.929052 
L 751.699215 137.921233 
L 753.731263 137.909038 
L 755.76331 137.891496 
L 757.795358 137.867633 
L 759.827406 137.836478 
L 761.859454 137.797058 
L 763.891501 137.748401 
L 765.923549 137.689534 
L 767.955597 137.619486 
L 769.987645 137.537283 
L 772.019692 137.441954 
L 774.05174 137.332526 
L 776.083788 137.208027 
L 778.115836 137.067484 
L 780.147883 136.909926 
L 782.179931 136.73438 
L 784.211979 136.539873 
L 786.244027 136.325433 
L 788.276074 136.090088 
L 790.308122 135.832865 
L 792.34017 135.552793 
L 794.372218 135.248899 
L 796.404265 134.92021 
L 798.436313 134.565754 
L 800.468361 134.18456 
L 802.500409 133.775653 
L 804.532456 133.338063 
L 806.564504 132.870817 
L 808.596552 132.372942 
L 810.6286 131.843467 
L 812.660647 131.281418 
L 814.692695 130.685824 
L 816.724743 130.055712 
L 818.756791 129.39011 
L 820.788838 128.688046 
L 822.820886 127.948547 
L 824.852934 127.17064 
L 826.884982 126.353354 
L 828.917029 125.495717 
L 830.949077 124.596755 
L 832.981125 123.655497 
L 835.013173 122.67097 
L 837.04522 121.642202 
L 839.077268 120.56822 
L 841.109316 119.448053 
L 843.141364 118.280727 
" clip-path="url(#p7e6dab3924)" style="fill: none; stroke: #d62728; stroke-width: 1.5; stroke-linecap: square"/>
   </g>
   <g id="line2d_71">
    <path d="M 641.968636 196.901818 
L 644.000684 193.399842 
L 646.032732 190.03934 
L 648.06478 186.817395 
L 650.096827 183.731091 
L 652.128875 180.77751 
L 654.160923 177.953735 
L 656.192971 175.25685 
L 658.225018 172.683937 
L 660.257066 170.232079 
L 662.289114 167.89836 
L 664.321162 165.679862 
L 666.353209 163.573669 
L 668.385257 161.576863 
L 670.417305 159.686527 
L 672.449353 157.899745 
L 674.4814 156.213599 
L 676.513448 154.625173 
L 678.545496 153.131549 
L 680.577544 151.72981 
L 682.609591 150.41704 
L 684.641639 149.190321 
L 686.673687 148.046737 
L 688.705735 146.98337 
L 690.737782 145.997304 
L 692.76983 145.08562 
L 694.801878 144.245404 
L 696.833926 143.473736 
L 698.865973 142.767702 
L 700.898021 142.124382 
L 702.930069 141.540861 
L 704.962117 141.014222 
L 706.994164 140.541547 
L 709.026212 140.119919 
L 711.05826 139.746422 
L 713.090308 139.418138 
L 715.122355 139.132151 
L 717.154403 138.885543 
L 719.186451 138.675398 
L 721.218499 138.498798 
L 723.250546 138.352827 
L 725.282594 138.234567 
L 727.314642 138.141101 
L 729.34669 138.069513 
L 731.378737 138.016886 
L 733.410785 137.980302 
L 735.442833 137.956844 
L 737.474881 137.943596 
L 739.506928 137.937641 
L 741.538976 137.936061 
L 743.571024 137.935939 
L 745.603072 137.934359 
L 747.635119 137.928404 
L 749.667167 137.915156 
L 751.699215 137.891698 
L 753.731263 137.855114 
L 755.76331 137.802487 
L 757.795358 137.730899 
L 759.827406 137.637433 
L 761.859454 137.519173 
L 763.891501 137.373202 
L 765.923549 137.196602 
L 767.955597 136.986457 
L 769.987645 136.739849 
L 772.019692 136.453862 
L 774.05174 136.125578 
L 776.083788 135.752081 
L 778.115836 135.330453 
L 780.147883 134.857778 
L 782.179931 134.331139 
L 784.211979 133.747618 
L 786.244027 133.104298 
L 788.276074 132.398264 
L 790.308122 131.626596 
L 792.34017 130.78638 
L 794.372218 129.874696 
L 796.404265 128.88863 
L 798.436313 127.825263 
L 800.468361 126.681679 
L 802.500409 125.45496 
L 804.532456 124.14219 
L 806.564504 122.740451 
L 808.596552 121.246827 
L 810.6286 119.658401 
L 812.660647 117.972255 
L 814.692695 116.185473 
L 816.724743 114.295137 
L 818.756791 112.298331 
L 820.788838 110.192138 
L 822.820886 107.97364 
L 824.852934 105.639921 
L 826.884982 103.188063 
L 828.917029 100.61515 
L 830.949077 97.918265 
L 832.981125 95.09449 
L 835.013173 92.140909 
L 837.04522 89.054605 
L 839.077268 85.83266 
L 841.109316 82.472158 
L 843.141364 78.970182 
" clip-path="url(#p7e6dab3924)" style="fill: none; stroke: #9467bd; stroke-width: 1.5; stroke-linecap: square"/>
   </g>
   <g id="line2d_72">
    <path d="M 641.968636 236.212364 
L 644.000684 230.375736 
L 646.032732 224.774899 
L 648.06478 219.404992 
L 650.096827 214.261151 
L 652.128875 209.338516 
L 654.160923 204.632225 
L 656.192971 200.137416 
L 658.225018 195.849228 
L 660.257066 191.762799 
L 662.289114 187.873267 
L 664.321162 184.175771 
L 666.353209 180.665448 
L 668.385257 177.337438 
L 670.417305 174.186879 
L 672.449353 171.208909 
L 674.4814 168.398666 
L 676.513448 165.751288 
L 678.545496 163.261915 
L 680.577544 160.925684 
L 682.609591 158.737734 
L 684.641639 156.693202 
L 686.673687 154.787228 
L 688.705735 153.01495 
L 690.737782 151.371506 
L 692.76983 149.852034 
L 694.801878 148.451673 
L 696.833926 147.165561 
L 698.865973 145.988836 
L 700.898021 144.916637 
L 702.930069 143.944102 
L 704.962117 143.06637 
L 706.994164 142.278578 
L 709.026212 141.575865 
L 711.05826 140.95337 
L 713.090308 140.406231 
L 715.122355 139.929585 
L 717.154403 139.518572 
L 719.186451 139.16833 
L 721.218499 138.873997 
L 723.250546 138.630711 
L 725.282594 138.433611 
L 727.314642 138.277836 
L 729.34669 138.158522 
L 731.378737 138.07081 
L 733.410785 138.009836 
L 735.442833 137.970741 
L 737.474881 137.948661 
L 739.506928 137.938735 
L 741.538976 137.936101 
L 743.571024 137.935899 
L 745.603072 137.933265 
L 747.635119 137.923339 
L 749.667167 137.901259 
L 751.699215 137.862164 
L 753.731263 137.80119 
L 755.76331 137.713478 
L 757.795358 137.594164 
L 759.827406 137.438389 
L 761.859454 137.241289 
L 763.891501 136.998003 
L 765.923549 136.70367 
L 767.955597 136.353428 
L 769.987645 135.942415 
L 772.019692 135.465769 
L 774.05174 134.91863 
L 776.083788 134.296135 
L 778.115836 133.593422 
L 780.147883 132.80563 
L 782.179931 131.927898 
L 784.211979 130.955363 
L 786.244027 129.883164 
L 788.276074 128.706439 
L 790.308122 127.420327 
L 792.34017 126.019966 
L 794.372218 124.500494 
L 796.404265 122.85705 
L 798.436313 121.084772 
L 800.468361 119.178798 
L 802.500409 117.134266 
L 804.532456 114.946316 
L 806.564504 112.610085 
L 808.596552 110.120712 
L 810.6286 107.473334 
L 812.660647 104.663091 
L 814.692695 101.685121 
L 816.724743 98.534562 
L 818.756791 95.206552 
L 820.788838 91.696229 
L 822.820886 87.998733 
L 824.852934 84.109201 
L 826.884982 80.022772 
L 828.917029 75.734584 
L 830.949077 71.239775 
L 832.981125 66.533484 
L 835.013173 61.610849 
L 837.04522 56.467008 
L 839.077268 51.097101 
L 841.109316 45.496264 
L 843.141364 39.659636 
" clip-path="url(#p7e6dab3924)" style="fill: none; stroke: #8c564b; stroke-width: 1.5; stroke-linecap: square"/>
   </g>
   <g id="patch_13">
    <path d="M 631.91 246.04 
L 631.91 29.832 
" style="fill: none; stroke: #000000; stroke-width: 0.8; stroke-linejoin: miter; stroke-linecap: square"/>
   </g>
   <g id="patch_14">
    <path d="M 853.2 246.04 
L 853.2 29.832 
" style="fill: none; stroke: #000000; stroke-width: 0.8; stroke-linejoin: miter; stroke-linecap: square"/>
   </g>
   <g id="patch_15">
    <path d="M 631.91 246.04 
L 853.2 246.04 
" style="fill: none; stroke: #000000; stroke-width: 0.8; stroke-linejoin: miter; stroke-linecap: square"/>
   </g>
   <g id="patch_16">
    <path d="M 631.91 29.832 
L 853.2 29.832 
" style="fill: none; stroke: #000000; stroke-width: 0.8; stroke-linejoin: miter; stroke-linecap: square"/>
   </g>
   <g id="text_63">
    <!-- $y = \alpha x^3$ -->
    <g transform="translate(721.015 23.832) scale(0.12 -0.12)">
     <defs>
      <path id="DejaVuSans-33" d="M 2597 2516 
Q 3050 2419 3304 2112 
Q 3559 1806 3559 1356 
Q 3559 666 3084 287 
Q 2609 -91 1734 -91 
Q 1441 -91 1130 -33 
Q 819 25 488 141 
L 488 750 
Q 750 597 1062 519 
Q 1375 441 1716 441 
Q 2309 441 2620 675 
Q 2931 909 2931 1356 
Q 2931 1769 2642 2001 
Q 2353 2234 1838 2234 
L 1294 2234 
L 1294 2753 
L 1863 2753 
Q 2328 2753 2575 2939 
Q 2822 3125 2822 3475 
Q 2822 3834 2567 4026 
Q 2313 4219 1838 4219 
Q 1578 4219 1281 4162 
Q 984 4106 628 3988 
L 628 4550 
Q 988 4650 1302 4700 
Q 1616 4750 1894 4750 
Q 2613 4750 3031 4423 
Q 3450 4097 3450 3541 
Q 3450 3153 3228 2886 
Q 3006 2619 2597 2516 
z
" transform="scale(0.015625)"/>
     </defs>
     <use xlink:href="#DejaVuSans-Oblique-79" transform="translate(0 0.765625)"/>
     <use xlink:href="#DejaVuSans-3d" transform="translate(78.662109 0.765625)"/>
     <use xlink:href="#DejaVuSans-Oblique-3b1" transform="translate(181.933594 0.765625)"/>
     <use xlink:href="#DejaVuSans-Oblique-78" transform="translate(247.851562 0.765625)"/>
     <use xlink:href="#DejaVuSans-33" transform="translate(311.497396 39.046875) scale(0.7)"/>
    </g>
   </g>
   <g id="legend_3">
    <g id="line2d_73">
     <path d="M 678.605 212.104062 
L 683.605 212.104062 
L 688.605 212.104062 
" style="fill: none; stroke: #1f77b4; stroke-width: 1.5; stroke-linecap: square"/>
    </g>
    <g id="text_64">
     <!-- $\alpha = -1$ -->
     <g transform="translate(696.605 215.604062) scale(0.1 -0.1)">
      <use xlink:href="#DejaVuSans-Oblique-3b1" transform="translate(0 0.09375)"/>
      <use xlink:href="#DejaVuSans-3d" transform="translate(85.400391 0.09375)"/>
      <use xlink:href="#DejaVuSans-2212" transform="translate(208.154297 0.09375)"/>
      <use xlink:href="#DejaVuSans-31" transform="translate(311.425781 0.09375)"/>
     </g>
    </g>
    <g id="line2d_74">
     <path d="M 678.605 221.782187 
L 683.605 221.782187 
L 688.605 221.782187 
" style="fill: none; stroke: #ff7f0e; stroke-width: 1.5; stroke-linecap: square"/>
    </g>
    <g id="text_65">
     <!-- $\alpha = -0.6$ -->
     <g transform="translate(696.605 225.282187) scale(0.1 -0.1)">
      <use xlink:href="#DejaVuSans-Oblique-3b1" transform="translate(0 0.78125)"/>
      <use xlink:href="#DejaVuSans-3d" transform="translate(85.400391 0.78125)"/>
      <use xlink:href="#DejaVuSans-2212" transform="translate(208.154297 0.78125)"/>
      <use xlink:href="#DejaVuSans-30" transform="translate(311.425781 0.78125)"/>
      <use xlink:href="#DejaVuSans-2e" transform="translate(375.048828 0.78125)"/>
      <use xlink:href="#DejaVuSans-36" transform="translate(406.835938 0.78125)"/>
     </g>
    </g>
    <g id="line2d_75">
     <path d="M 678.605 231.460312 
L 683.605 231.460312 
L 688.605 231.460312 
" style="fill: none; stroke: #2ca02c; stroke-width: 1.5; stroke-linecap: square"/>
    </g>
    <g id="text_66">
     <!-- $\alpha = -0.2$ -->
     <g transform="translate(696.605 234.960312) scale(0.1 -0.1)">
      <use xlink:href="#DejaVuSans-Oblique-3b1" transform="translate(0 0.78125)"/>
      <use xlink:href="#DejaVuSans-3d" transform="translate(85.400391 0.78125)"/>
      <use xlink:href="#DejaVuSans-2212" transform="translate(208.154297 0.78125)"/>
      <use xlink:href="#DejaVuSans-30" transform="translate(311.425781 0.78125)"/>
      <use xlink:href="#DejaVuSans-2e" transform="translate(375.048828 0.78125)"/>
      <use xlink:href="#DejaVuSans-32" transform="translate(401.335938 0.78125)"/>
     </g>
    </g>
    <g id="line2d_76">
     <path d="M 753.705 212.104062 
L 758.705 212.104062 
L 763.705 212.104062 
" style="fill: none; stroke: #d62728; stroke-width: 1.5; stroke-linecap: square"/>
    </g>
    <g id="text_67">
     <!-- $\alpha = 0.2$ -->
     <g transform="translate(771.705 215.604062) scale(0.1 -0.1)">
      <use xlink:href="#DejaVuSans-Oblique-3b1" transform="translate(0 0.78125)"/>
      <use xlink:href="#DejaVuSans-3d" transform="translate(85.400391 0.78125)"/>
      <use xlink:href="#DejaVuSans-30" transform="translate(188.671875 0.78125)"/>
      <use xlink:href="#DejaVuSans-2e" transform="translate(252.294922 0.78125)"/>
      <use xlink:href="#DejaVuSans-32" transform="translate(278.582031 0.78125)"/>
     </g>
    </g>
    <g id="line2d_77">
     <path d="M 753.705 221.782187 
L 758.705 221.782187 
L 763.705 221.782187 
" style="fill: none; stroke: #9467bd; stroke-width: 1.5; stroke-linecap: square"/>
    </g>
    <g id="text_68">
     <!-- $\alpha = 0.6$ -->
     <g transform="translate(771.705 225.282187) scale(0.1 -0.1)">
      <use xlink:href="#DejaVuSans-Oblique-3b1" transform="translate(0 0.78125)"/>
      <use xlink:href="#DejaVuSans-3d" transform="translate(85.400391 0.78125)"/>
      <use xlink:href="#DejaVuSans-30" transform="translate(188.671875 0.78125)"/>
      <use xlink:href="#DejaVuSans-2e" transform="translate(252.294922 0.78125)"/>
      <use xlink:href="#DejaVuSans-36" transform="translate(284.082031 0.78125)"/>
     </g>
    </g>
    <g id="line2d_78">
     <path d="M 753.705 231.460312 
L 758.705 231.460312 
L 763.705 231.460312 
" style="fill: none; stroke: #8c564b; stroke-width: 1.5; stroke-linecap: square"/>
    </g>
    <g id="text_69">
     <!-- $\alpha = 1$ -->
     <g transform="translate(771.705 234.960312) scale(0.1 -0.1)">
      <use xlink:href="#DejaVuSans-Oblique-3b1" transform="translate(0 0.09375)"/>
      <use xlink:href="#DejaVuSans-3d" transform="translate(85.400391 0.09375)"/>
      <use xlink:href="#DejaVuSans-31" transform="translate(188.671875 0.09375)"/>
     </g>
    </g>
   </g>
  </g>
 </g>
 <defs>
  <clipPath id="p58b55cee86">
   <rect x="63.11" y="29.832" width="221.29" height="216.208"/>
  </clipPath>
  <clipPath id="paaef64f052">
   <rect x="347.51" y="29.832" width="221.29" height="216.208"/>
  </clipPath>
  <clipPath id="p7e6dab3924">
   <rect x="631.91" y="29.832" width="221.29" height="216.208"/>
  </clipPath>
 </defs>
</svg>
